130227_FengardoRedux_Italic 1.ufo
<glyph name="exclam" format="1">
  <advance width="254"/>
  <unicode hex="0021"/>
  <outline>
    <contour>
      <point x="150" y="690" type="line"/>
      <point x="83" y="175" type="line"/>
      <point x="143" y="175" type="line"/>
      <point x="254" y="734" type="line"/>
    </contour>
    <contour>
      <point x="40" y="42" type="curve" smooth="yes"/>
      <point x="40" y="9"/>
      <point x="65" y="-15"/>
      <point x="98" y="-15" type="curve" smooth="yes"/>
      <point x="130" y="-15"/>
      <point x="156" y="9"/>
      <point x="156" y="42" type="curve" smooth="yes"/>
      <point x="156" y="74"/>
      <point x="130" y="100"/>
      <point x="98" y="100" type="curve" smooth="yes"/>
      <point x="65" y="100"/>
      <point x="40" y="74"/>
    </contour>
  </outline>
</glyph>
<glyph name="quotedbl" format="1">
  <advance width="277"/>
  <unicode hex="0022"/>
  <outline>
    <contour>
      <point x="255" y="510" type="line"/>
      <point x="255" y="510"/>
      <point x="290" y="602"/>
      <point x="305" y="673" type="curve" smooth="yes"/>
      <point x="311" y="706"/>
      <point x="295" y="720"/>
      <point x="275" y="720" type="curve" smooth="yes"/>
      <point x="255" y="720"/>
      <point x="231" y="708"/>
      <point x="227" y="675" type="curve" smooth="yes"/>
      <point x="217" y="612"/>
      <point x="198" y="510"/>
      <point x="198" y="510" type="curve"/>
    </contour>
    <contour>
      <point x="163" y="510" type="line"/>
      <point x="163" y="510"/>
      <point x="180" y="612"/>
      <point x="189" y="675" type="curve" smooth="yes"/>
      <point x="193" y="708"/>
      <point x="177" y="720"/>
      <point x="157" y="720" type="curve" smooth="yes"/>
      <point x="137" y="720"/>
      <point x="115" y="708"/>
      <point x="111" y="675" type="curve" smooth="yes"/>
      <point x="102" y="609"/>
      <point x="107" y="510"/>
      <point x="107" y="510" type="curve"/>
    </contour>
  </outline>
</glyph>
<glyph name="dollar" format="1">
  <advance width="497"/>
  <unicode hex="0024"/>
  <outline>
    <contour>
      <point x="383" y="750" type="line"/>
      <point x="333" y="734" type="line"/>
      <point x="166" y="-75" type="line"/>
      <point x="216" y="-59" type="line"/>
    </contour>
    <component base="S" xScale="0.956896543503" yScale="0.956521749496" xOffset="-4" yOffset="14"/>
  </outline>
</glyph>
<glyph name="percent" format="1">
  <advance width="822"/>
  <unicode hex="0025"/>
  <outline>
    <contour>
      <point x="106" y="533" type="curve" smooth="yes"/>
      <point x="105" y="452"/>
      <point x="161" y="395"/>
      <point x="242" y="395" type="curve" smooth="yes"/>
      <point x="318" y="395"/>
      <point x="381" y="452"/>
      <point x="382" y="533" type="curve" smooth="yes"/>
      <point x="383" y="614"/>
      <point x="327" y="671"/>
      <point x="246" y="671" type="curve" smooth="yes"/>
      <point x="165" y="671"/>
      <point x="107" y="614"/>
    </contour>
    <contour>
      <point x="165" y="533" type="curve" smooth="yes"/>
      <point x="166" y="585"/>
      <point x="201" y="621"/>
      <point x="245" y="621" type="curve" smooth="yes"/>
      <point x="290" y="621"/>
      <point x="325" y="585"/>
      <point x="324" y="533" type="curve" smooth="yes"/>
      <point x="323" y="482"/>
      <point x="287" y="445"/>
      <point x="242" y="445" type="curve" smooth="yes"/>
      <point x="198" y="445"/>
      <point x="164" y="482"/>
    </contour>
    <contour>
      <point x="687" y="660" type="line"/>
      <point x="627" y="660" type="line"/>
      <point x="134" y="0" type="line"/>
      <point x="194" y="0" type="line"/>
    </contour>
    <contour>
      <point x="455" y="128" type="curve" smooth="yes"/>
      <point x="453" y="47"/>
      <point x="509" y="-10"/>
      <point x="590" y="-10" type="curve" smooth="yes"/>
      <point x="666" y="-10"/>
      <point x="729" y="47"/>
      <point x="731" y="128" type="curve" smooth="yes"/>
      <point x="732" y="209"/>
      <point x="676" y="266"/>
      <point x="595" y="266" type="curve" smooth="yes"/>
      <point x="514" y="266"/>
      <point x="456" y="209"/>
    </contour>
    <contour>
      <point x="514" y="128" type="curve" smooth="yes"/>
      <point x="515" y="180"/>
      <point x="550" y="216"/>
      <point x="594" y="216" type="curve" smooth="yes"/>
      <point x="639" y="216"/>
      <point x="674" y="180"/>
      <point x="673" y="128" type="curve" smooth="yes"/>
      <point x="672" y="77"/>
      <point x="636" y="40"/>
      <point x="591" y="40" type="curve" smooth="yes"/>
      <point x="547" y="40"/>
      <point x="513" y="77"/>
    </contour>
  </outline>
</glyph>
<glyph name="ampersand" format="1">
  <advance width="694"/>
  <unicode hex="0026"/>
  <outline>
    <contour>
      <point x="467" y="-110" type="curve" smooth="yes"/>
      <point x="422" y="-5"/>
      <point x="300" y="271"/>
      <point x="300" y="271" type="curve"/>
      <point x="336" y="277" type="line" smooth="yes"/>
      <point x="412" y="285"/>
      <point x="415" y="295"/>
      <point x="425" y="359" type="curve" smooth="yes"/>
      <point x="438" y="454"/>
      <point x="361" y="509"/>
      <point x="274" y="509" type="curve" smooth="yes"/>
      <point x="189" y="509"/>
      <point x="95" y="461"/>
      <point x="68" y="338" type="curve" smooth="yes"/>
      <point x="58" y="296"/>
      <point x="57" y="283"/>
      <point x="53" y="245" type="curve" smooth="yes"/>
      <point x="32" y="62"/>
      <point x="152" y="-10"/>
      <point x="278" y="-10" type="curve" smooth="yes"/>
      <point x="412" y="-10"/>
      <point x="552" y="60"/>
      <point x="585" y="241" type="curve" smooth="yes"/>
      <point x="649" y="600" type="line"/>
      <point x="744" y="600" type="line"/>
      <point x="754" y="660" type="line"/>
      <point x="490" y="660" type="line"/>
      <point x="480" y="600" type="line"/>
      <point x="574" y="600" type="line"/>
      <point x="511" y="246" type="line" smooth="yes"/>
      <point x="485" y="104"/>
      <point x="390" y="51"/>
      <point x="282" y="51" type="curve" smooth="yes"/>
      <point x="194" y="51"/>
      <point x="109" y="107"/>
      <point x="127" y="241" type="curve" smooth="yes"/>
      <point x="131" y="281"/>
      <point x="139" y="316"/>
      <point x="143" y="337" type="curve" smooth="yes"/>
      <point x="178" y="497"/>
      <point x="371" y="471"/>
      <point x="351" y="361" type="curve" smooth="yes"/>
      <point x="345" y="330"/>
      <point x="343" y="324"/>
      <point x="298" y="319" type="curve" smooth="yes"/>
      <point x="231" y="310" type="line"/>
      <point x="221" y="271" type="line"/>
      <point x="221" y="271"/>
      <point x="354" y="-34"/>
      <point x="409" y="-151" type="curve" smooth="yes"/>
      <point x="438" y="-212"/>
      <point x="491" y="-208"/>
      <point x="526" y="-186" type="curve"/>
      <point x="534" y="-141" type="line"/>
      <point x="494" y="-142"/>
      <point x="481" y="-142"/>
    </contour>
  </outline>
</glyph>
<glyph name="asterisk" format="1">
  <advance width="348"/>
  <unicode hex="002A"/>
  <outline>
    <contour>
      <point x="224" y="666" type="curve" smooth="yes"/>
      <point x="220" y="636"/>
      <point x="218" y="590"/>
      <point x="218" y="564" type="curve"/>
      <point x="215" y="562" type="line"/>
      <point x="193" y="575"/>
      <point x="158" y="589"/>
      <point x="129" y="600" type="curve" smooth="yes"/>
      <point x="87" y="615"/>
      <point x="61" y="560"/>
      <point x="103" y="546" type="curve" smooth="yes"/>
      <point x="130" y="537"/>
      <point x="166" y="529"/>
      <point x="193" y="525" type="curve"/>
      <point x="193" y="522" type="line"/>
      <point x="172" y="503"/>
      <point x="135" y="468"/>
      <point x="112" y="441" type="curve" smooth="yes"/>
      <point x="73" y="395"/>
      <point x="120" y="363"/>
      <point x="154" y="404" type="curve" smooth="yes"/>
      <point x="175" y="429"/>
      <point x="208" y="472"/>
      <point x="227" y="499" type="curve"/>
      <point x="235" y="473"/>
      <point x="254" y="431"/>
      <point x="266" y="406" type="curve" smooth="yes"/>
      <point x="288" y="364"/>
      <point x="341" y="392"/>
      <point x="320" y="437" type="curve" smooth="yes"/>
      <point x="308" y="462"/>
      <point x="280" y="504"/>
      <point x="265" y="522" type="curve"/>
      <point x="267" y="525" type="line"/>
      <point x="296" y="529"/>
      <point x="332" y="536"/>
      <point x="361" y="544" type="curve" smooth="yes"/>
      <point x="411" y="559"/>
      <point x="400" y="615"/>
      <point x="350" y="599" type="curve" smooth="yes"/>
      <point x="317" y="588"/>
      <point x="284" y="574"/>
      <point x="257" y="562" type="curve"/>
      <point x="256" y="564" type="line"/>
      <point x="264" y="590"/>
      <point x="280" y="636"/>
      <point x="286" y="666" type="curve" smooth="yes"/>
      <point x="296" y="712"/>
      <point x="230" y="710"/>
    </contour>
  </outline>
</glyph>
<glyph name="comma" format="1">
  <advance width="177"/>
  <unicode hex="002C"/>
  <outline>
    <contour>
      <point x="70" y="-15" type="curve"/>
      <point x="53" y="-80"/>
      <point x="-3" y="-108"/>
      <point x="-52" y="-122" type="curve"/>
      <point x="-34" y="-155" type="line"/>
      <point x="57" y="-136"/>
      <point x="135" y="-62"/>
      <point x="135" y="33" type="curve" smooth="yes"/>
      <point x="135" y="75"/>
      <point x="109" y="100"/>
      <point x="75" y="100" type="curve" smooth="yes"/>
      <point x="41" y="100"/>
      <point x="15" y="71"/>
      <point x="15" y="40" type="curve" smooth="yes"/>
      <point x="15" y="14"/>
      <point x="32" y="-15"/>
    </contour>
  </outline>
</glyph>
<glyph name="hyphen" format="1">
  <advance width="320"/>
  <unicode hex="002D"/>
  <outline>
    <contour>
      <point x="40" y="240" type="line"/>
      <point x="285" y="240" type="line"/>
      <point x="295" y="300" type="line"/>
      <point x="50" y="300" type="line"/>
    </contour>
  </outline>
</glyph>
<glyph name="three" format="1">
  <advance width="507"/>
  <unicode hex="0033"/>
  <outline>
    <contour>
      <point x="291" y="261" type="curve"/>
      <point x="507" y="480" type="line"/>
      <point x="497" y="540" type="line"/>
      <point x="125" y="540" type="line"/>
      <point x="114" y="470" type="line"/>
      <point x="405" y="470" type="line"/>
      <point x="194" y="247" type="line"/>
      <point x="198" y="208" type="line"/>
      <point x="303" y="214"/>
      <point x="366" y="174"/>
      <point x="366" y="77" type="curve" smooth="yes"/>
      <point x="366" y="-26"/>
      <point x="315" y="-90"/>
      <point x="225" y="-90" type="curve" smooth="yes"/>
      <point x="151" y="-90"/>
      <point x="106" y="-47"/>
      <point x="100" y="25" type="curve"/>
      <point x="25" y="20" type="line"/>
      <point x="28" y="-92"/>
      <point x="110" y="-160"/>
      <point x="215" y="-160" type="curve" smooth="yes"/>
      <point x="352" y="-160"/>
      <point x="451" y="-64"/>
      <point x="451" y="77" type="curve" smooth="yes"/>
      <point x="451" y="181"/>
      <point x="386" y="254"/>
    </contour>
  </outline>
</glyph>
<glyph name="six" format="1">
  <advance width="540"/>
  <unicode hex="0036"/>
  <outline>
    <contour>
      <point x="68" y="232" type="curve" smooth="yes"/>
      <point x="53" y="70"/>
      <point x="131" y="-15"/>
      <point x="253" y="-15" type="curve" smooth="yes"/>
      <point x="391" y="-15"/>
      <point x="490" y="97"/>
      <point x="490" y="247" type="curve" smooth="yes"/>
      <point x="490" y="349"/>
      <point x="429" y="420"/>
      <point x="336" y="420" type="curve" smooth="yes"/>
      <point x="278" y="420"/>
      <point x="242" y="391"/>
      <point x="242" y="391" type="curve"/>
      <point x="224" y="337" type="line"/>
      <point x="224" y="337"/>
      <point x="256" y="355"/>
      <point x="299" y="355" type="curve" smooth="yes"/>
      <point x="371" y="355"/>
      <point x="402" y="302"/>
      <point x="402" y="236" type="curve" smooth="yes"/>
      <point x="402" y="128"/>
      <point x="352" y="55"/>
      <point x="264" y="55" type="curve" smooth="yes"/>
      <point x="181" y="55"/>
      <point x="141" y="118"/>
      <point x="147" y="220" type="curve" smooth="yes"/>
      <point x="152" y="301"/>
      <point x="171" y="397"/>
      <point x="188" y="471" type="curve" smooth="yes"/>
      <point x="208" y="557"/>
      <point x="245" y="630"/>
      <point x="332" y="630" type="curve" smooth="yes"/>
      <point x="409" y="630"/>
      <point x="436" y="574"/>
      <point x="428" y="510" type="curve"/>
      <point x="504" y="515" type="line"/>
      <point x="522" y="628"/>
      <point x="453" y="700"/>
      <point x="340" y="700" type="curve" smooth="yes"/>
      <point x="208" y="700"/>
      <point x="135" y="602"/>
      <point x="106" y="476" type="curve" smooth="yes"/>
      <point x="89" y="401"/>
      <point x="74" y="299"/>
    </contour>
  </outline>
</glyph>
<glyph name="eight" format="1">
  <advance width="575"/>
  <unicode hex="0038"/>
  <outline>
    <contour>
      <point x="60.0" y="156.0" type="curve" smooth="yes"/>
      <point x="60.0" y="254.0"/>
      <point x="124.0" y="326.0"/>
      <point x="210.0" y="357.0" type="curve"/>
      <point x="161.0" y="378.0"/>
      <point x="127.0" y="425.0"/>
      <point x="127.0" y="486.0" type="curve" smooth="yes"/>
      <point x="127.0" y="615.0"/>
      <point x="240.0" y="700.0"/>
      <point x="362.0" y="700.0" type="curve" smooth="yes"/>
      <point x="472.0" y="700.0"/>
      <point x="543.0" y="637.0"/>
      <point x="543.0" y="536.0" type="curve" smooth="yes"/>
      <point x="543.0" y="450.0"/>
      <point x="487.0" y="385.0"/>
      <point x="413.0" y="355.0" type="curve"/>
      <point x="470.0" y="333.0"/>
      <point x="508.0" y="283.0"/>
      <point x="508.0" y="212.0" type="curve" smooth="yes"/>
      <point x="508.0" y="71.0"/>
      <point x="381.0" y="-15.0"/>
      <point x="255.0" y="-15.0" type="curve" smooth="yes"/>
      <point x="146.0" y="-15.0"/>
      <point x="60.0" y="42.0"/>
    </contour>
    <contour>
      <point x="322.0" y="383.0" type="curve" smooth="yes"/>
      <point x="403.0" y="383.0"/>
      <point x="459.0" y="440.0"/>
      <point x="459.0" y="527.0" type="curve" smooth="yes"/>
      <point x="459.0" y="589.0"/>
      <point x="423.0" y="630.0"/>
      <point x="355.0" y="630.0" type="curve" smooth="yes"/>
      <point x="265.0" y="630.0"/>
      <point x="213.0" y="563.0"/>
      <point x="213.0" y="487.0" type="curve" smooth="yes"/>
      <point x="213.0" y="419.0"/>
      <point x="257.0" y="383.0"/>
    </contour>
    <contour>
      <point x="268.0" y="55.0" type="curve" smooth="yes"/>
      <point x="359.0" y="55.0"/>
      <point x="423.0" y="119.0"/>
      <point x="423.0" y="208.0" type="curve" smooth="yes"/>
      <point x="423.0" y="269.0"/>
      <point x="387.0" y="318.0"/>
      <point x="306.0" y="318.0" type="curve" smooth="yes"/>
      <point x="212.0" y="318.0"/>
      <point x="146.0" y="255.0"/>
      <point x="146.0" y="164.0" type="curve" smooth="yes"/>
      <point x="146.0" y="96.0"/>
      <point x="187.0" y="57.0"/>
    </contour>
  </outline>
</glyph>
<glyph name="nine" format="1">
  <advance width="545"/>
  <unicode hex="0039"/>
  <outline>
    <contour>
      <point x="83" y="290" type="curve" smooth="yes"/>
      <point x="83" y="168"/>
      <point x="165" y="107"/>
      <point x="255" y="107" type="curve" smooth="yes"/>
      <point x="308" y="107"/>
      <point x="333" y="140"/>
      <point x="333" y="140" type="curve"/>
      <point x="356" y="196" type="line"/>
      <point x="356" y="196"/>
      <point x="331" y="177"/>
      <point x="277" y="177" type="curve" smooth="yes"/>
      <point x="218" y="177"/>
      <point x="169" y="218"/>
      <point x="169" y="300" type="curve" smooth="yes"/>
      <point x="169" y="398"/>
      <point x="221" y="485"/>
      <point x="308" y="485" type="curve" smooth="yes"/>
      <point x="411" y="485"/>
      <point x="434" y="398"/>
      <point x="425" y="315" type="curve" smooth="yes"/>
      <point x="416" y="234"/>
      <point x="406" y="177"/>
      <point x="384" y="83" type="curve" smooth="yes"/>
      <point x="364" y="-4"/>
      <point x="327" y="-90"/>
      <point x="225" y="-90" type="curve" smooth="yes"/>
      <point x="144" y="-90"/>
      <point x="104" y="-40"/>
      <point x="101" y="25" type="curve"/>
      <point x="26" y="20" type="line"/>
      <point x="25" y="-85"/>
      <point x="105" y="-160"/>
      <point x="216" y="-160" type="curve" smooth="yes"/>
      <point x="374" y="-160"/>
      <point x="438" y="-42"/>
      <point x="467" y="84" type="curve" smooth="yes"/>
      <point x="487" y="171"/>
      <point x="498" y="239"/>
      <point x="506" y="305" type="curve" smooth="yes"/>
      <point x="523" y="451"/>
      <point x="460" y="555"/>
      <point x="318" y="555" type="curve" smooth="yes"/>
      <point x="169" y="555"/>
      <point x="83" y="432"/>
    </contour>
  </outline>
</glyph>
<glyph name="less" format="1">
  <advance width="483"/>
  <unicode hex="003C"/>
  <outline>
    <contour>
      <point x="55" y="228" type="line"/>
      <point x="366" y="-9" type="line"/>
      <point x="401" y="36" type="line"/>
      <point x="147" y="235" type="line"/>
      <point x="473" y="439" type="line"/>
      <point x="445" y="485" type="line"/>
      <point x="57" y="242" type="line"/>
    </contour>
  </outline>
</glyph>
<glyph name="equal" format="1">
  <advance width="570"/>
  <unicode hex="003D"/>
  <outline>
    <contour>
      <point x="109" y="333" type="line"/>
      <point x="503" y="333" type="line"/>
      <point x="515" y="393" type="line"/>
      <point x="121" y="393" type="line"/>
    </contour>
    <contour>
      <point x="75" y="138" type="line"/>
      <point x="469" y="138" type="line"/>
      <point x="480" y="198" type="line"/>
      <point x="86" y="198" type="line"/>
    </contour>
  </outline>
</glyph>
<glyph name="greater" format="1">
  <advance width="519"/>
  <unicode hex="003E"/>
  <outline>
    <contour>
      <point x="464" y="242" type="line"/>
      <point x="157" y="485" type="line"/>
      <point x="122" y="441" type="line"/>
      <point x="373" y="236" type="line"/>
      <point x="45" y="39" type="line"/>
      <point x="73" y="-9" type="line"/>
      <point x="462" y="228" type="line"/>
    </contour>
  </outline>
</glyph>
<glyph name="question" format="1">
  <advance width="381"/>
  <unicode hex="003F"/>
  <outline>
    <contour>
      <point x="215" y="175" type="line"/>
      <point x="228" y="259" type="line" smooth="yes"/>
      <point x="235" y="301"/>
      <point x="238" y="313"/>
      <point x="312" y="371" type="curve" smooth="yes"/>
      <point x="393" y="434"/>
      <point x="395" y="448"/>
      <point x="404" y="518" type="curve" smooth="yes"/>
      <point x="416" y="624"/>
      <point x="341" y="675"/>
      <point x="259" y="675" type="curve" smooth="yes"/>
      <point x="174" y="675"/>
      <point x="84" y="620"/>
      <point x="80" y="515" type="curve"/>
      <point x="160" y="515" type="line"/>
      <point x="166" y="578"/>
      <point x="209" y="610"/>
      <point x="252" y="610" type="curve" smooth="yes"/>
      <point x="294" y="610"/>
      <point x="332" y="579"/>
      <point x="324" y="518" type="curve" smooth="yes"/>
      <point x="316" y="460"/>
      <point x="303" y="445"/>
      <point x="254" y="402" type="curve" smooth="yes"/>
      <point x="178" y="337"/>
      <point x="171" y="331"/>
      <point x="161" y="252" type="curve" smooth="yes"/>
      <point x="151" y="175" type="line"/>
    </contour>
    <contour>
      <point x="119" y="40" type="curve"/>
      <point x="119" y="12"/>
      <point x="140" y="-10"/>
      <point x="168" y="-10" type="curve" smooth="yes"/>
      <point x="195" y="-10"/>
      <point x="219" y="12"/>
      <point x="219" y="40" type="curve"/>
      <point x="220" y="67"/>
      <point x="197" y="90"/>
      <point x="170" y="90" type="curve" smooth="yes"/>
      <point x="142" y="90"/>
      <point x="120" y="67"/>
    </contour>
  </outline>
</glyph>
<glyph name="at" format="1">
  <advance width="964"/>
  <unicode hex="0040"/>
  <outline>
    <contour>
      <point x="370" y="225" type="curve" smooth="yes"/>
      <point x="375" y="280"/>
      <point x="382" y="318"/>
      <point x="394" y="370" type="curve" smooth="yes"/>
      <point x="411" y="443"/>
      <point x="455" y="475"/>
      <point x="510" y="475" type="curve" smooth="yes"/>
      <point x="554" y="475"/>
      <point x="575" y="461"/>
      <point x="575" y="461" type="curve"/>
      <point x="527" y="189" type="line"/>
      <point x="517" y="153"/>
      <point x="488" y="110"/>
      <point x="433" y="110" type="curve" smooth="yes"/>
      <point x="381" y="110"/>
      <point x="362" y="142"/>
    </contour>
    <contour>
      <point x="603" y="167" type="curve"/>
      <point x="659" y="497" type="line"/>
      <point x="617" y="523"/>
      <point x="569" y="540"/>
      <point x="512" y="540" type="curve" smooth="yes"/>
      <point x="418" y="540"/>
      <point x="343" y="494"/>
      <point x="314" y="370" type="curve" smooth="yes"/>
      <point x="302" y="319"/>
      <point x="296" y="281"/>
      <point x="290" y="225" type="curve" smooth="yes"/>
      <point x="276" y="98"/>
      <point x="334" y="45"/>
      <point x="406" y="45" type="curve" smooth="yes"/>
      <point x="491" y="45"/>
      <point x="527" y="124"/>
      <point x="527" y="124" type="curve"/>
      <point x="536" y="49"/>
      <point x="593" y="15"/>
      <point x="666" y="15" type="curve" smooth="yes"/>
      <point x="778" y="15"/>
      <point x="884" y="125"/>
      <point x="884" y="340" type="curve" smooth="yes"/>
      <point x="884" y="552"/>
      <point x="756" y="715"/>
      <point x="516" y="715" type="curve" smooth="yes"/>
      <point x="256" y="715"/>
      <point x="75" y="498"/>
      <point x="75" y="230" type="curve" smooth="yes"/>
      <point x="75" y="-51"/>
      <point x="259" y="-171"/>
      <point x="486" y="-171" type="curve" smooth="yes"/>
      <point x="635" y="-171"/>
      <point x="691" y="-115"/>
      <point x="691" y="-115" type="curve"/>
      <point x="668" y="-65" type="line"/>
      <point x="668" y="-65"/>
      <point x="606" y="-106"/>
      <point x="486" y="-106" type="curve" smooth="yes"/>
      <point x="309" y="-106"/>
      <point x="150" y="-13"/>
      <point x="150" y="230" type="curve" smooth="yes"/>
      <point x="150" y="474"/>
      <point x="314" y="650"/>
      <point x="516" y="650" type="curve" smooth="yes"/>
      <point x="731" y="650"/>
      <point x="809" y="507"/>
      <point x="809" y="341" type="curve" smooth="yes"/>
      <point x="809" y="168"/>
      <point x="741" y="80"/>
      <point x="666" y="80" type="curve" smooth="yes"/>
      <point x="615" y="80"/>
      <point x="593" y="110"/>
    </contour>
  </outline>
</glyph>
<glyph name="A" format="1">
  <advance width="569"/>
  <unicode hex="0041"/>
  <outline>
    <contour>
      <point x="315" y="700" type="line"/>
      <point x="318" y="674" type="line"/>
      <point x="-15" y="0" type="line"/>
      <point x="74" y="0" type="line"/>
      <point x="345" y="581" type="line"/>
      <point x="435" y="0" type="line"/>
      <point x="519" y="0" type="line"/>
      <point x="402" y="700" type="line"/>
    </contour>
    <contour>
      <point x="402" y="260" type="line"/>
      <point x="180" y="260" type="line"/>
      <point x="180" y="259"/>
      <point x="151" y="190"/>
      <point x="151" y="190" type="curve"/>
      <point x="411" y="190" type="line"/>
    </contour>
  </outline>
</glyph>
<glyph name="B" format="1">
  <advance width="556"/>
  <unicode hex="0042"/>
  <outline>
    <contour>
      <point x="60" y="0" type="line"/>
      <point x="60" y="0"/>
      <point x="156" y="-2"/>
      <point x="232" y="-2" type="curve" smooth="yes"/>
      <point x="388" y="-2"/>
      <point x="509" y="60"/>
      <point x="509" y="213" type="curve" smooth="yes"/>
      <point x="509" y="288"/>
      <point x="459" y="341"/>
      <point x="401" y="361" type="curve"/>
      <point x="474" y="379"/>
      <point x="541" y="445"/>
      <point x="541" y="531" type="curve" smooth="yes"/>
      <point x="541" y="660"/>
      <point x="446" y="702"/>
      <point x="318" y="702" type="curve" smooth="yes"/>
      <point x="251" y="702"/>
      <point x="171" y="700"/>
      <point x="171" y="700" type="curve"/>
    </contour>
    <contour>
      <point x="197" y="329" type="line"/>
      <point x="197" y="329"/>
      <point x="216" y="331"/>
      <point x="257" y="331" type="curve" smooth="yes"/>
      <point x="361" y="331"/>
      <point x="425" y="308"/>
      <point x="425" y="208" type="curve" smooth="yes"/>
      <point x="425" y="96"/>
      <point x="344" y="68"/>
      <point x="242" y="68" type="curve" smooth="yes"/>
      <point x="199" y="68"/>
      <point x="156" y="70"/>
      <point x="156" y="70" type="curve"/>
    </contour>
    <contour>
      <point x="245" y="630" type="line"/>
      <point x="245" y="630"/>
      <point x="279" y="632"/>
      <point x="316" y="632" type="curve" smooth="yes"/>
      <point x="412" y="632"/>
      <point x="456" y="599"/>
      <point x="456" y="521" type="curve" smooth="yes"/>
      <point x="456" y="423"/>
      <point x="387" y="393"/>
      <point x="283" y="393" type="curve" smooth="yes"/>
      <point x="239" y="393"/>
      <point x="208" y="394"/>
      <point x="208" y="394" type="curve"/>
    </contour>
  </outline>
</glyph>
<glyph name="C" format="1">
  <advance width="557"/>
  <unicode hex="0043"/>
  <outline>
    <contour>
      <point x="555" y="520" type="line"/>
      <point x="568" y="639"/>
      <point x="484" y="715"/>
      <point x="358" y="715" type="curve" smooth="yes"/>
      <point x="248" y="715"/>
      <point x="144" y="653"/>
      <point x="115" y="504" type="curve" smooth="yes"/>
      <point x="101" y="434"/>
      <point x="82" y="312"/>
      <point x="73" y="241" type="curve" smooth="yes"/>
      <point x="52" y="67"/>
      <point x="152" y="-15"/>
      <point x="275" y="-15" type="curve" smooth="yes"/>
      <point x="393" y="-15"/>
      <point x="497" y="61"/>
      <point x="511" y="185" type="curve"/>
      <point x="436" y="190" type="line"/>
      <point x="421" y="101"/>
      <point x="357" y="55"/>
      <point x="281" y="55" type="curve" smooth="yes"/>
      <point x="197" y="55"/>
      <point x="141" y="120"/>
      <point x="157" y="237" type="curve" smooth="yes"/>
      <point x="166" y="302"/>
      <point x="186" y="429"/>
      <point x="199" y="499" type="curve" smooth="yes"/>
      <point x="217" y="595"/>
      <point x="278" y="645"/>
      <point x="355" y="645" type="curve" smooth="yes"/>
      <point x="449" y="645"/>
      <point x="480" y="576"/>
      <point x="480" y="515" type="curve"/>
    </contour>
  </outline>
</glyph>
<glyph name="D" format="1">
  <advance width="587"/>
  <unicode hex="0044"/>
  <outline>
    <contour>
      <point x="55" y="0" type="line"/>
      <point x="55" y="0"/>
      <point x="147" y="-5"/>
      <point x="229" y="-5" type="curve" smooth="yes"/>
      <point x="408" y="-5"/>
      <point x="498" y="80"/>
      <point x="527" y="216" type="curve" smooth="yes"/>
      <point x="541" y="280"/>
      <point x="557" y="374"/>
      <point x="564" y="439" type="curve" smooth="yes"/>
      <point x="584" y="635"/>
      <point x="464" y="705"/>
      <point x="304" y="705" type="curve" smooth="yes"/>
      <point x="237" y="705"/>
      <point x="166" y="700"/>
      <point x="166" y="700" type="curve"/>
    </contour>
    <contour>
      <point x="479" y="436" type="curve" smooth="yes"/>
      <point x="473" y="369"/>
      <point x="459" y="297"/>
      <point x="444" y="228" type="curve" smooth="yes"/>
      <point x="418" y="108"/>
      <point x="344" y="65"/>
      <point x="243" y="65" type="curve" smooth="yes"/>
      <point x="190" y="65"/>
      <point x="151" y="69"/>
      <point x="151" y="69" type="curve"/>
      <point x="240" y="633" type="line"/>
      <point x="240" y="633"/>
      <point x="267" y="635"/>
      <point x="306" y="635" type="curve" smooth="yes"/>
      <point x="451" y="635"/>
      <point x="490" y="551"/>
    </contour>
  </outline>
</glyph>
<glyph name="E" format="1">
  <advance width="506"/>
  <unicode hex="0045"/>
  <outline>
    <contour>
      <point x="60" y="0" type="line"/>
      <point x="430" y="0" type="line"/>
      <point x="441" y="70" type="line"/>
      <point x="156" y="70" type="line"/>
      <point x="195" y="315" type="line"/>
      <point x="448" y="315" type="line"/>
      <point x="459" y="385" type="line"/>
      <point x="206" y="385" type="line"/>
      <point x="245" y="630" type="line"/>
      <point x="520" y="630" type="line"/>
      <point x="531" y="700" type="line"/>
      <point x="171" y="700" type="line"/>
    </contour>
  </outline>
</glyph>
<glyph name="G" format="1">
  <advance width="574"/>
  <unicode hex="0047"/>
  <outline>
    <contour>
      <point x="290" y="-15" type="curve" smooth="yes"/>
      <point x="440" y="-15"/>
      <point x="505" y="83"/>
      <point x="533" y="204" type="curve" smooth="yes"/>
      <point x="547" y="266"/>
      <point x="559" y="365"/>
      <point x="559" y="365" type="curve"/>
      <point x="322" y="365" type="line"/>
      <point x="314" y="300" type="line"/>
      <point x="463" y="300" type="line"/>
      <point x="463" y="300"/>
      <point x="459" y="256"/>
      <point x="450" y="214" type="curve" smooth="yes"/>
      <point x="432" y="126"/>
      <point x="394" y="55"/>
      <point x="295" y="55" type="curve" smooth="yes"/>
      <point x="174" y="55"/>
      <point x="146" y="145"/>
      <point x="157" y="237" type="curve" smooth="yes"/>
      <point x="165" y="302"/>
      <point x="186" y="429"/>
      <point x="199" y="499" type="curve" smooth="yes"/>
      <point x="217" y="595"/>
      <point x="272" y="645"/>
      <point x="354" y="645" type="curve" smooth="yes"/>
      <point x="449" y="645"/>
      <point x="481" y="576"/>
      <point x="481" y="515" type="curve"/>
      <point x="556" y="515" type="line"/>
      <point x="561" y="634"/>
      <point x="488" y="715"/>
      <point x="357" y="715" type="curve" smooth="yes"/>
      <point x="242" y="715"/>
      <point x="144" y="653"/>
      <point x="115" y="504" type="curve" smooth="yes"/>
      <point x="101" y="434"/>
      <point x="81" y="312"/>
      <point x="73" y="241" type="curve" smooth="yes"/>
      <point x="55" y="78"/>
      <point x="142" y="-15"/>
    </contour>
  </outline>
</glyph>
<glyph name="H" format="1">
  <advance width="647.0"/>
  <unicode hex="0048"/>
  <outline>
    <contour>
      <point x="631.953252938" y="700.0" type="line"/>
      <point x="546.953252938" y="700.0" type="line"/>
      <point x="497.953252938" y="390.0" type="line"/>
      <point x="196.953252938" y="390.0" type="line"/>
      <point x="245.953252938" y="700.0" type="line"/>
      <point x="160.953252938" y="700.0" type="line"/>
      <point x="49.9532529383" y="0.0" type="line"/>
      <point x="134.953252938" y="0.0" type="line"/>
      <point x="185.953252938" y="320.0" type="line"/>
      <point x="486.953252938" y="320.0" type="line"/>
      <point x="435.953252938" y="0.0" type="line"/>
      <point x="520.953252938" y="0.0" type="line"/>
    </contour>
  </outline>
</glyph>
<glyph name="K" format="1">
  <advance width="550"/>
  <unicode hex="004B"/>
  <outline>
    <contour>
      <point x="256" y="700" type="line"/>
      <point x="171" y="700" type="line"/>
      <point x="60" y="0" type="line"/>
      <point x="145" y="0" type="line"/>
    </contour>
    <contour>
      <point x="212" y="356" type="line"/>
      <point x="423" y="0" type="line"/>
      <point x="518" y="0" type="line"/>
      <point x="491" y="44"/>
      <point x="330" y="322"/>
      <point x="305" y="359" type="curve"/>
      <point x="620" y="700" type="line"/>
      <point x="520" y="700" type="line"/>
    </contour>
  </outline>
</glyph>
<glyph name="M" format="1">
  <advance width="755"/>
  <unicode hex="004D"/>
  <outline>
    <contour>
      <point x="392" y="183" type="line"/>
      <point x="392" y="183"/>
      <point x="632" y="556"/>
      <point x="632" y="556" type="curve"/>
      <point x="634" y="556" type="line"/>
      <point x="620" y="485" type="line"/>
      <point x="544" y="0" type="line"/>
      <point x="629" y="0" type="line"/>
      <point x="740" y="700" type="line"/>
      <point x="640" y="700" type="line"/>
      <point x="640" y="700"/>
      <point x="382" y="288"/>
      <point x="382" y="288" type="curve"/>
      <point x="382" y="288"/>
      <point x="262" y="700"/>
      <point x="262" y="700" type="curve"/>
      <point x="171" y="700" type="line"/>
      <point x="60" y="0" type="line"/>
      <point x="140" y="0" type="line"/>
      <point x="216" y="484" type="line"/>
      <point x="224" y="569" type="line"/>
      <point x="225" y="569" type="line"/>
      <point x="225" y="569"/>
      <point x="340" y="183"/>
      <point x="340" y="183" type="curve"/>
    </contour>
  </outline>
</glyph>
<glyph name="Q" format="1">
  <advance width="608"/>
  <unicode hex="0051"/>
  <outline>
    <contour>
      <point x="603" y="-3" type="curve" smooth="yes"/>
      <point x="546" y="-3"/>
      <point x="510" y="81"/>
      <point x="443" y="163" type="curve" smooth="yes"/>
      <point x="380" y="241"/>
      <point x="330" y="301"/>
      <point x="239" y="301" type="curve" smooth="yes"/>
      <point x="159" y="301"/>
      <point x="75" y="254"/>
      <point x="75" y="151" type="curve" smooth="yes"/>
      <point x="75" y="55"/>
      <point x="169" y="-15"/>
      <point x="278" y="-15" type="curve" smooth="yes"/>
      <point x="423" y="-15"/>
      <point x="511" y="88"/>
      <point x="537" y="222" type="curve" smooth="yes"/>
      <point x="551" y="294"/>
      <point x="569" y="402"/>
      <point x="576" y="470" type="curve" smooth="yes"/>
      <point x="591" y="620"/>
      <point x="501" y="715"/>
      <point x="369" y="715" type="curve" smooth="yes"/>
      <point x="224" y="715"/>
      <point x="138" y="620"/>
      <point x="113" y="485" type="curve" smooth="yes"/>
      <point x="98" y="402"/>
      <point x="91" y="353"/>
      <point x="93" y="329" type="curve"/>
      <point x="174" y="354" type="line"/>
      <point x="180" y="393"/>
      <point x="187" y="436"/>
      <point x="198" y="485" type="curve" smooth="yes"/>
      <point x="224" y="602"/>
      <point x="284" y="645"/>
      <point x="362" y="645" type="curve" smooth="yes"/>
      <point x="452" y="645"/>
      <point x="503" y="582"/>
      <point x="492" y="474" type="curve" smooth="yes"/>
      <point x="484" y="399"/>
      <point x="472" y="315"/>
      <point x="453" y="225" type="curve" smooth="yes"/>
      <point x="429" y="112"/>
      <point x="372" y="55"/>
      <point x="289" y="55" type="curve" smooth="yes"/>
      <point x="211" y="55"/>
      <point x="160" y="94"/>
      <point x="160" y="151" type="curve" smooth="yes"/>
      <point x="160" y="199"/>
      <point x="190" y="232"/>
      <point x="235" y="232" type="curve" smooth="yes"/>
      <point x="292" y="232"/>
      <point x="334" y="179"/>
      <point x="392" y="102" type="curve" smooth="yes"/>
      <point x="479" y="-14"/>
      <point x="513" y="-70"/>
      <point x="582" y="-70" type="curve" smooth="yes"/>
      <point x="614" y="-70"/>
      <point x="633" y="-45"/>
      <point x="633" y="-45" type="curve"/>
      <point x="633" y="0" type="line"/>
      <point x="627" y="-1"/>
      <point x="614" y="-3"/>
    </contour>
  </outline>
</glyph>
<glyph name="R" format="1">
  <advance width="564"/>
  <unicode hex="0052"/>
  <outline>
    <contour>
      <point x="308" y="302" type="curve" smooth="yes"/>
      <point x="441" y="305"/>
      <point x="549" y="389"/>
      <point x="549" y="517" type="curve" smooth="yes"/>
      <point x="549" y="672"/>
      <point x="430" y="702"/>
      <point x="295" y="702" type="curve" smooth="yes"/>
      <point x="231" y="702"/>
      <point x="171" y="700"/>
      <point x="171" y="700" type="curve"/>
      <point x="60" y="0" type="line"/>
      <point x="145" y="0" type="line"/>
      <point x="193" y="303" type="line"/>
      <point x="193" y="303"/>
      <point x="245" y="301"/>
    </contour>
    <contour>
      <point x="464" y="515" type="curve" smooth="yes"/>
      <point x="464" y="392"/>
      <point x="380" y="366"/>
      <point x="273" y="366" type="curve" smooth="yes"/>
      <point x="232" y="366"/>
      <point x="203" y="368"/>
      <point x="203" y="368" type="curve"/>
      <point x="245" y="630" type="line"/>
      <point x="245" y="630"/>
      <point x="274" y="632"/>
      <point x="311" y="632" type="curve" smooth="yes"/>
      <point x="400" y="632"/>
      <point x="464" y="603"/>
    </contour>
    <contour>
      <point x="282" y="302" type="line"/>
      <point x="282" y="302"/>
      <point x="303" y="307"/>
      <point x="320" y="264" type="curve" smooth="yes"/>
      <point x="423" y="0" type="line"/>
      <point x="510" y="0" type="line"/>
      <point x="406" y="263" type="line" smooth="yes"/>
      <point x="391" y="302"/>
      <point x="369" y="314"/>
      <point x="369" y="314" type="curve"/>
    </contour>
  </outline>
</glyph>
<glyph name="S" format="1">
  <advance width="537"/>
  <unicode hex="0053"/>
  <outline>
    <contour>
      <point x="256" y="55" type="curve" smooth="yes"/>
      <point x="179" y="55"/>
      <point x="105" y="103"/>
      <point x="111" y="205" type="curve"/>
      <point x="36" y="200" type="line"/>
      <point x="31" y="63"/>
      <point x="129" y="-15"/>
      <point x="252" y="-15" type="curve" smooth="yes"/>
      <point x="380" y="-15"/>
      <point x="472" y="66"/>
      <point x="472" y="178" type="curve" smooth="yes"/>
      <point x="472" y="270"/>
      <point x="402" y="332"/>
      <point x="328" y="391" type="curve" smooth="yes"/>
      <point x="278" y="431"/>
      <point x="214" y="473"/>
      <point x="214" y="542" type="curve" smooth="yes"/>
      <point x="214" y="612"/>
      <point x="265" y="645"/>
      <point x="331" y="645" type="curve" smooth="yes"/>
      <point x="402" y="645"/>
      <point x="463" y="600"/>
      <point x="448" y="505" type="curve"/>
      <point x="523" y="510" type="line"/>
      <point x="538" y="650"/>
      <point x="451" y="715"/>
      <point x="332" y="715" type="curve" smooth="yes"/>
      <point x="226" y="715"/>
      <point x="131" y="642"/>
      <point x="131" y="537" type="curve" smooth="yes"/>
      <point x="131" y="442"/>
      <point x="187" y="397"/>
      <point x="279" y="324" type="curve" smooth="yes"/>
      <point x="355" y="263"/>
      <point x="390" y="225"/>
      <point x="390" y="167" type="curve" smooth="yes"/>
      <point x="390" y="91"/>
      <point x="334" y="55"/>
    </contour>
  </outline>
</glyph>
<glyph name="U" format="1">
  <advance width="607"/>
  <unicode hex="0055"/>
  <outline>
    <contour>
      <point x="531" y="222" type="curve" smooth="yes"/>
      <point x="549" y="322"/>
      <point x="607" y="700"/>
      <point x="607" y="700" type="curve"/>
      <point x="522" y="700" type="line"/>
      <point x="522" y="700"/>
      <point x="461" y="305"/>
      <point x="446" y="223" type="curve" smooth="yes"/>
      <point x="424" y="104"/>
      <point x="371" y="55"/>
      <point x="297" y="55" type="curve" smooth="yes"/>
      <point x="205" y="55"/>
      <point x="159" y="120"/>
      <point x="172" y="227" type="curve" smooth="yes"/>
      <point x="183" y="317"/>
      <point x="246" y="700"/>
      <point x="246" y="700" type="curve"/>
      <point x="161" y="700" type="line"/>
      <point x="161" y="700"/>
      <point x="103" y="348"/>
      <point x="88" y="233" type="curve" smooth="yes"/>
      <point x="68" y="81"/>
      <point x="162" y="-15"/>
      <point x="290" y="-15" type="curve" smooth="yes"/>
      <point x="436" y="-15"/>
      <point x="506" y="86"/>
    </contour>
  </outline>
</glyph>
<glyph name="V" format="1">
  <advance width="531"/>
  <unicode hex="0056"/>
  <outline>
    <contour>
      <point x="272" y="0" type="line"/>
      <point x="606" y="700" type="line"/>
      <point x="516" y="700" type="line"/>
      <point x="245" y="103" type="line"/>
      <point x="170" y="700" type="line"/>
      <point x="80" y="700" type="line"/>
      <point x="183" y="0" type="line"/>
    </contour>
  </outline>
</glyph>
<glyph name="W" format="1">
  <advance width="795"/>
  <unicode hex="0057"/>
  <outline>
    <contour>
      <point x="240" y="0" type="line"/>
      <point x="420" y="478" type="line"/>
      <point x="453" y="595" type="line"/>
      <point x="455" y="595" type="line"/>
      <point x="458" y="479" type="line"/>
      <point x="487" y="0" type="line"/>
      <point x="586" y="0" type="line"/>
      <point x="865" y="700" type="line"/>
      <point x="780" y="700" type="line"/>
      <point x="591" y="213" type="line"/>
      <point x="558" y="103" type="line"/>
      <point x="554" y="103" type="line"/>
      <point x="547" y="211" type="line"/>
      <point x="518" y="700" type="line"/>
      <point x="428" y="700" type="line"/>
      <point x="239" y="212" type="line"/>
      <point x="210" y="108" type="line"/>
      <point x="206" y="108" type="line"/>
      <point x="202" y="211" type="line"/>
      <point x="175" y="700" type="line"/>
      <point x="85" y="700" type="line"/>
      <point x="143" y="0" type="line"/>
    </contour>
  </outline>
</glyph>
<glyph name="X" format="1">
  <advance width="534"/>
  <unicode hex="0058"/>
  <outline>
    <contour>
      <point x="397" y="0" type="line"/>
      <point x="489" y="0" type="line"/>
      <point x="341" y="353" type="line"/>
      <point x="579" y="700" type="line"/>
      <point x="484" y="700" type="line"/>
      <point x="303" y="420" type="line"/>
      <point x="193" y="700" type="line"/>
      <point x="102" y="700" type="line"/>
      <point x="240" y="366" type="line"/>
      <point x="-10" y="0" type="line"/>
      <point x="81" y="0" type="line"/>
      <point x="279" y="296" type="line"/>
    </contour>
  </outline>
</glyph>
<glyph name="Z" format="1">
  <advance width="538"/>
  <unicode hex="005A"/>
  <outline>
    <contour>
      <point x="124" y="630" type="line"/>
      <point x="468" y="630" type="line"/>
      <point x="25" y="70" type="line"/>
      <point x="27" y="0" type="line"/>
      <point x="470" y="0" type="line"/>
      <point x="481" y="70" type="line"/>
      <point x="124" y="70" type="line"/>
      <point x="568" y="635" type="line"/>
      <point x="565" y="700" type="line"/>
      <point x="136" y="700" type="line"/>
    </contour>
  </outline>
</glyph>
<glyph name="bracketleft" format="1">
  <advance width="301"/>
  <unicode hex="005B"/>
  <outline>
    <contour>
      <point x="45" y="-140" type="line"/>
      <point x="193" y="-140" type="line"/>
      <point x="201" y="-90" type="line"/>
      <point x="118" y="-90" type="line"/>
      <point x="254" y="690" type="line"/>
      <point x="337" y="690" type="line"/>
      <point x="346" y="740" type="line"/>
      <point x="198" y="740" type="line"/>
    </contour>
  </outline>
</glyph>
<glyph name="bracketright" format="1">
  <advance width="306"/>
  <unicode hex="005D"/>
  <outline>
    <contour>
      <point x="301" y="740" type="line"/>
      <point x="153" y="740" type="line"/>
      <point x="144" y="690" type="line"/>
      <point x="227" y="690" type="line"/>
      <point x="91" y="-90" type="line"/>
      <point x="8" y="-90" type="line"/>
      <point x="0" y="-140" type="line"/>
      <point x="148" y="-140" type="line"/>
    </contour>
  </outline>
</glyph>
<glyph name="asciicircum" format="1">
  <advance width="389"/>
  <unicode hex="005E"/>
  <outline>
    <contour>
      <point x="220" y="720" type="line"/>
      <point x="74" y="563" type="line"/>
      <point x="100" y="535" type="line"/>
      <point x="234" y="648" type="line"/>
      <point x="337" y="535" type="line"/>
      <point x="368" y="559" type="line"/>
      <point x="267" y="720" type="line"/>
    </contour>
  </outline>
</glyph>
<glyph name="a" format="1">
  <advance width="480"/>
  <unicode hex="0061"/>
  <outline>
    <contour>
      <point x="127" y="165" type="curve" smooth="yes"/>
      <point x="133" y="219"/>
      <point x="143" y="282"/>
      <point x="152" y="325" type="curve" smooth="yes"/>
      <point x="167" y="399"/>
      <point x="217" y="435"/>
      <point x="271" y="435" type="curve" smooth="yes"/>
      <point x="316" y="435"/>
      <point x="340" y="423"/>
      <point x="340" y="423" type="curve"/>
      <point x="293" y="129" type="line"/>
      <point x="283" y="93"/>
      <point x="250" y="50"/>
      <point x="195" y="50" type="curve" smooth="yes"/>
      <point x="148" y="50"/>
      <point x="118" y="82"/>
    </contour>
    <contour>
      <point x="292" y="64" type="curve"/>
      <point x="296" y="-20"/>
      <point x="389" y="-17"/>
      <point x="421" y="0" type="curve"/>
      <point x="430" y="55" type="line"/>
      <point x="384" y="55"/>
      <point x="363" y="61"/>
      <point x="370" y="107" type="curve" smooth="yes"/>
      <point x="426" y="457" type="line"/>
      <point x="390" y="485"/>
      <point x="338" y="500"/>
      <point x="281" y="500" type="curve" smooth="yes"/>
      <point x="182" y="500"/>
      <point x="99" y="455"/>
      <point x="72" y="325" type="curve" smooth="yes"/>
      <point x="62" y="277"/>
      <point x="52" y="216"/>
      <point x="47" y="165" type="curve" smooth="yes"/>
      <point x="35" y="38"/>
      <point x="97" y="-15"/>
      <point x="169" y="-15" type="curve" smooth="yes"/>
      <point x="259" y="-15"/>
      <point x="292" y="64"/>
    </contour>
  </outline>
</glyph>
<glyph name="d" format="1">
  <advance width="482"/>
  <unicode hex="0064"/>
  <outline>
    <contour>
      <point x="334" y="321" type="curve"/>
      <point x="304" y="134" type="line"/>
      <point x="288" y="83"/>
      <point x="248" y="50"/>
      <point x="202" y="50" type="curve" smooth="yes"/>
      <point x="139" y="50"/>
      <point x="119" y="87"/>
      <point x="127" y="170" type="curve" smooth="yes"/>
      <point x="131" y="215"/>
      <point x="145" y="293"/>
      <point x="154" y="339" type="curve" smooth="yes"/>
      <point x="168" y="412"/>
      <point x="207" y="435"/>
      <point x="251" y="435" type="curve" smooth="yes"/>
      <point x="307" y="435"/>
      <point x="342" y="398"/>
    </contour>
    <contour>
      <point x="301" y="66" type="curve"/>
      <point x="305" y="-18"/>
      <point x="390" y="-17"/>
      <point x="431" y="0" type="curve"/>
      <point x="439" y="55" type="line"/>
      <point x="393" y="55"/>
      <point x="373" y="62"/>
      <point x="380" y="107" type="curve" smooth="yes"/>
      <point x="482" y="750" type="line"/>
      <point x="398" y="725" type="line"/>
      <point x="351" y="429" type="line"/>
      <point x="336" y="475"/>
      <point x="286" y="500"/>
      <point x="237" y="500" type="curve" smooth="yes"/>
      <point x="160" y="500"/>
      <point x="95" y="457"/>
      <point x="75" y="347" type="curve" smooth="yes"/>
      <point x="65" y="293"/>
      <point x="55" y="235"/>
      <point x="48" y="179" type="curve" smooth="yes"/>
      <point x="31" y="40"/>
      <point x="100" y="-15"/>
      <point x="175" y="-15" type="curve" smooth="yes"/>
      <point x="235" y="-15"/>
      <point x="283" y="21"/>
    </contour>
  </outline>
</glyph>
<glyph name="e" format="1">
  <advance width="448"/>
  <unicode hex="0065"/>
  <outline>
    <contour>
      <point x="127" y="177" type="curve" smooth="yes"/>
      <point x="133" y="224"/>
      <point x="141" y="273"/>
      <point x="150" y="321" type="curve" smooth="yes"/>
      <point x="163" y="390"/>
      <point x="202" y="435"/>
      <point x="261" y="435" type="curve" smooth="yes"/>
      <point x="305" y="435"/>
      <point x="339" y="410"/>
      <point x="339" y="362" type="curve" smooth="yes"/>
      <point x="339" y="319"/>
      <point x="329" y="296"/>
      <point x="278" y="288" type="curve" smooth="yes"/>
      <point x="217" y="279"/>
      <point x="117" y="272"/>
      <point x="117" y="272" type="curve"/>
      <point x="107" y="228" type="line"/>
      <point x="107" y="228"/>
      <point x="246" y="236"/>
      <point x="319" y="245" type="curve" smooth="yes"/>
      <point x="402" y="255"/>
      <point x="418" y="294"/>
      <point x="418" y="367" type="curve" smooth="yes"/>
      <point x="418" y="445"/>
      <point x="351" y="500"/>
      <point x="268" y="500" type="curve" smooth="yes"/>
      <point x="162" y="500"/>
      <point x="93" y="438"/>
      <point x="71" y="327" type="curve" smooth="yes"/>
      <point x="63" y="285"/>
      <point x="55" y="236"/>
      <point x="48" y="183" type="curve" smooth="yes"/>
      <point x="33" y="62"/>
      <point x="98" y="-15"/>
      <point x="206" y="-15" type="curve" smooth="yes"/>
      <point x="306" y="-15"/>
      <point x="373" y="49"/>
      <point x="383" y="135" type="curve"/>
      <point x="313" y="140" type="line"/>
      <point x="302" y="90"/>
      <point x="270" y="50"/>
      <point x="215" y="50" type="curve" smooth="yes"/>
      <point x="138" y="50"/>
      <point x="120" y="117"/>
    </contour>
  </outline>
</glyph>
<glyph name="f" format="1">
  <advance width="279"/>
  <unicode hex="0066"/>
  <outline>
    <contour>
      <point x="217" y="566" type="curve" smooth="yes"/>
      <point x="229" y="633"/>
      <point x="252" y="685"/>
      <point x="321" y="685" type="curve" smooth="yes"/>
      <point x="358" y="685"/>
      <point x="382" y="669"/>
      <point x="382" y="669" type="curve"/>
      <point x="409" y="719" type="line"/>
      <point x="409" y="719"/>
      <point x="375" y="750"/>
      <point x="320" y="750" type="curve" smooth="yes"/>
      <point x="248" y="750"/>
      <point x="163" y="723"/>
      <point x="137" y="567" type="curve" smooth="yes"/>
      <point x="115" y="437"/>
      <point x="75" y="63"/>
      <point x="50" y="-71" type="curve" smooth="yes"/>
      <point x="35" y="-152"/>
      <point x="6" y="-195"/>
      <point x="-51" y="-195" type="curve" smooth="yes"/>
      <point x="-89" y="-195"/>
      <point x="-115" y="-179"/>
      <point x="-115" y="-179" type="curve"/>
      <point x="-140" y="-228" type="line"/>
      <point x="-140" y="-228"/>
      <point x="-97" y="-260"/>
      <point x="-41" y="-260" type="curve" smooth="yes"/>
      <point x="26" y="-260"/>
      <point x="103" y="-222"/>
      <point x="130" y="-72" type="curve" smooth="yes"/>
      <point x="156" y="74"/>
      <point x="199" y="463"/>
    </contour>
    <contour>
      <point x="321" y="430" type="line"/>
      <point x="331" y="485" type="line"/>
      <point x="59" y="485" type="line"/>
      <point x="50" y="430" type="line"/>
    </contour>
  </outline>
</glyph>
<glyph name="i" format="1">
  <advance width="234"/>
  <unicode hex="0069"/>
  <outline>
    <contour>
      <point x="186" y="495" type="line"/>
      <point x="102" y="470" type="line"/>
      <point x="43" y="100" type="line" smooth="yes"/>
      <point x="23" y="-19"/>
      <point x="119" y="-20"/>
      <point x="174" y="0" type="curve"/>
      <point x="182" y="55" type="line"/>
      <point x="132" y="55"/>
      <point x="117" y="62"/>
      <point x="124" y="107" type="curve" smooth="yes"/>
    </contour>
    <contour>
      <point x="118" y="659" type="curve" smooth="yes"/>
      <point x="118" y="627"/>
      <point x="139" y="605"/>
      <point x="170" y="605" type="curve" smooth="yes"/>
      <point x="202" y="605"/>
      <point x="224" y="628"/>
      <point x="224" y="660" type="curve" smooth="yes"/>
      <point x="224" y="691"/>
      <point x="202" y="715"/>
      <point x="170" y="715" type="curve" smooth="yes"/>
      <point x="139" y="715"/>
      <point x="118" y="690"/>
    </contour>
  </outline>
</glyph>
<glyph name="l" format="1">
  <advance width="226"/>
  <unicode hex="006C"/>
  <outline>
    <contour>
      <point x="226" y="750" type="line"/>
      <point x="142" y="725" type="line"/>
      <point x="43" y="100" type="line" smooth="yes"/>
      <point x="23" y="-19"/>
      <point x="119" y="-20"/>
      <point x="174" y="0" type="curve"/>
      <point x="182" y="55" type="line"/>
      <point x="132" y="55"/>
      <point x="116" y="62"/>
      <point x="124" y="107" type="curve" smooth="yes"/>
    </contour>
  </outline>
</glyph>
<glyph name="m" format="1">
  <advance width="748"/>
  <unicode hex="006D"/>
  <outline>
    <contour>
      <point x="680" y="336" type="line"/>
      <point x="695" y="430"/>
      <point x="649" y="500"/>
      <point x="562" y="500" type="curve" smooth="yes"/>
      <point x="460" y="500"/>
      <point x="416" y="411"/>
      <point x="416" y="411" type="curve"/>
      <point x="408" y="459"/>
      <point x="371" y="500"/>
      <point x="311" y="500" type="curve" smooth="yes"/>
      <point x="252" y="500"/>
      <point x="207" y="472"/>
      <point x="180" y="430" type="curve"/>
      <point x="170" y="475"/>
      <point x="139" y="490"/>
      <point x="107" y="490" type="curve" smooth="yes"/>
      <point x="87" y="490"/>
      <point x="67" y="485"/>
      <point x="56" y="480" type="curve"/>
      <point x="47" y="430" type="line"/>
      <point x="93" y="430"/>
      <point x="107" y="422"/>
      <point x="99" y="374" type="curve" smooth="yes"/>
      <point x="40" y="0" type="line"/>
      <point x="120" y="0" type="line"/>
      <point x="169" y="310" type="line" smooth="yes"/>
      <point x="184" y="406"/>
      <point x="235" y="435"/>
      <point x="284" y="435" type="curve" smooth="yes"/>
      <point x="331" y="435"/>
      <point x="355" y="400"/>
      <point x="340" y="308" type="curve" smooth="yes"/>
      <point x="291" y="0" type="line"/>
      <point x="371" y="0" type="line"/>
      <point x="420" y="308" type="line" smooth="yes"/>
      <point x="432" y="385"/>
      <point x="483" y="435"/>
      <point x="536" y="435" type="curve" smooth="yes"/>
      <point x="595" y="435"/>
      <point x="609" y="393"/>
      <point x="600" y="336" type="curve" smooth="yes"/>
      <point x="564" y="110" type="line" smooth="yes"/>
      <point x="544" y="-9"/>
      <point x="633" y="-23"/>
      <point x="694" y="0" type="curve"/>
      <point x="703" y="55" type="line"/>
      <point x="653" y="55"/>
      <point x="636" y="66"/>
      <point x="644" y="110" type="curve" smooth="yes"/>
    </contour>
  </outline>
</glyph>
<glyph name="n" format="1">
  <advance width="515.945572447"/>
  <unicode hex="006E"/>
  <outline>
    <contour>
      <point x="444.945572447" y="320" type="line"/>
      <point x="464.945572447" y="441"/>
      <point x="406.945572447" y="500"/>
      <point x="323.945572447" y="500" type="curve" smooth="yes"/>
      <point x="233.945572447" y="500"/>
      <point x="193.945572447" y="435"/>
      <point x="190.945572447" y="431" type="curve"/>
      <point x="182.945572447" y="479"/>
      <point x="146.945572447" y="490"/>
      <point x="112.945572447" y="490" type="curve" smooth="yes"/>
      <point x="95.9455724467" y="490"/>
      <point x="75.9455724467" y="485"/>
      <point x="65.9455724467" y="480" type="curve"/>
      <point x="56.9455724467" y="430" type="line"/>
      <point x="102.945572447" y="430"/>
      <point x="116.945572447" y="421"/>
      <point x="108.945572447" y="372" type="curve" smooth="yes"/>
      <point x="49.9455724467" y="0" type="line"/>
      <point x="129.945572447" y="0" type="line"/>
      <point x="176.945572447" y="302" type="line" smooth="yes"/>
      <point x="190.945572447" y="393"/>
      <point x="235.945572447" y="435"/>
      <point x="298.945572447" y="435" type="curve" smooth="yes"/>
      <point x="348.945572447" y="435"/>
      <point x="378.945572447" y="402"/>
      <point x="364.945572447" y="320" type="curve" smooth="yes"/>
      <point x="330.945572447" y="110" type="line" smooth="yes"/>
      <point x="309.945572447" y="-14"/>
      <point x="400.945572447" y="-24"/>
      <point x="460.945572447" y="0" type="curve"/>
      <point x="470.945572447" y="55" type="line"/>
      <point x="420.945572447" y="55"/>
      <point x="403.945572447" y="66"/>
      <point x="410.945572447" y="110" type="curve" smooth="yes"/>
    </contour>
  </outline>
</glyph>
<glyph name="o" format="1">
  <advance width="472.0"/>
  <unicode hex="006F"/>
  <outline>
    <contour>
      <point x="404.0" y="176.0" type="curve" smooth="yes"/>
      <point x="412.0" y="219.0"/>
      <point x="419.0" y="263.0"/>
      <point x="424.0" y="305.0" type="curve" smooth="yes"/>
      <point x="438.0" y="418.0"/>
      <point x="381.0" y="500.0"/>
      <point x="267.0" y="500.0" type="curve" smooth="yes"/>
      <point x="165.0" y="500.0"/>
      <point x="92.0" y="442.0"/>
      <point x="69.0" y="322.0" type="curve" smooth="yes"/>
      <point x="63.0" y="291.0"/>
      <point x="54.0" y="236.0"/>
      <point x="48.0" y="187.0" type="curve" smooth="yes"/>
      <point x="34.0" y="74.0"/>
      <point x="90.0" y="-15.0"/>
      <point x="207.0" y="-15.0" type="curve" smooth="yes"/>
      <point x="321.0" y="-15.0"/>
      <point x="380.0" y="49.0"/>
    </contour>
    <contour>
      <point x="345.0" y="310.0" type="curve" smooth="yes"/>
      <point x="337.0" y="250.0"/>
      <point x="334.0" y="234.0"/>
      <point x="325.0" y="184.0" type="curve" smooth="yes"/>
      <point x="310.0" y="99.0"/>
      <point x="280.0" y="50.0"/>
      <point x="210.0" y="50.0" type="curve" smooth="yes"/>
      <point x="130.0" y="50.0"/>
      <point x="119.0" y="122.0"/>
      <point x="127.0" y="182.0" type="curve" smooth="yes"/>
      <point x="133.0" y="228.0"/>
      <point x="140.0" y="272.0"/>
      <point x="148.0" y="315.0" type="curve" smooth="yes"/>
      <point x="163.0" y="393.0"/>
      <point x="200.0" y="435.0"/>
      <point x="261.0" y="435.0" type="curve" smooth="yes"/>
      <point x="339.0" y="435.0"/>
      <point x="353.0" y="372.0"/>
    </contour>
  </outline>
</glyph>
<glyph name="r" format="1">
  <advance width="328"/>
  <unicode hex="0072"/>
  <outline>
    <contour>
      <point x="177" y="362" type="line"/>
      <point x="193" y="463"/>
      <point x="146" y="490"/>
      <point x="104" y="490" type="curve" smooth="yes"/>
      <point x="85" y="490"/>
      <point x="66" y="485"/>
      <point x="56" y="480" type="curve"/>
      <point x="47" y="430" type="line"/>
      <point x="93" y="430"/>
      <point x="107" y="421"/>
      <point x="99" y="370" type="curve" smooth="yes"/>
      <point x="40" y="0" type="line"/>
      <point x="120" y="0" type="line"/>
    </contour>
    <contour>
      <point x="165" y="285" type="line"/>
      <point x="181" y="387"/>
      <point x="199" y="425"/>
      <point x="268" y="425" type="curve" smooth="yes"/>
      <point x="293" y="425"/>
      <point x="325" y="425"/>
      <point x="325" y="425" type="curve"/>
      <point x="338" y="480" type="line"/>
      <point x="331" y="490"/>
      <point x="308" y="500"/>
      <point x="282" y="500" type="curve" smooth="yes"/>
      <point x="193" y="500"/>
      <point x="157" y="410"/>
      <point x="162" y="317" type="curve"/>
    </contour>
  </outline>
</glyph>
<glyph name="s" format="1">
  <advance width="430"/>
  <unicode hex="0073"/>
  <outline>
    <contour>
      <point x="384" y="350" type="line"/>
      <point x="398" y="449"/>
      <point x="325" y="500"/>
      <point x="242" y="500" type="curve" smooth="yes"/>
      <point x="159" y="500"/>
      <point x="86" y="451"/>
      <point x="86" y="361" type="curve" smooth="yes"/>
      <point x="86" y="289"/>
      <point x="134" y="251"/>
      <point x="192" y="217" type="curve" smooth="yes"/>
      <point x="232" y="194"/>
      <point x="285" y="165"/>
      <point x="285" y="116" type="curve" smooth="yes"/>
      <point x="285" y="74"/>
      <point x="253" y="50"/>
      <point x="210" y="50" type="curve" smooth="yes"/>
      <point x="145" y="50"/>
      <point x="104" y="90"/>
      <point x="111" y="150" type="curve"/>
      <point x="41" y="145" type="line"/>
      <point x="33" y="51"/>
      <point x="104" y="-15"/>
      <point x="197" y="-15" type="curve" smooth="yes"/>
      <point x="298" y="-15"/>
      <point x="364" y="45"/>
      <point x="364" y="131" type="curve" smooth="yes"/>
      <point x="364" y="204"/>
      <point x="312" y="238"/>
      <point x="252" y="274" type="curve" smooth="yes"/>
      <point x="202" y="304"/>
      <point x="166" y="330"/>
      <point x="166" y="373" type="curve" smooth="yes"/>
      <point x="166" y="410"/>
      <point x="193" y="435"/>
      <point x="241" y="435" type="curve" smooth="yes"/>
      <point x="292" y="435"/>
      <point x="321" y="396"/>
      <point x="314" y="345" type="curve"/>
    </contour>
  </outline>
</glyph>
<glyph name="u" format="1">
  <advance width="495"/>
  <unicode hex="0075"/>
  <outline>
    <contour>
      <point x="441" y="495" type="line"/>
      <point x="358" y="470" type="line"/>
      <point x="302" y="128" type="line"/>
      <point x="286" y="85"/>
      <point x="248" y="50"/>
      <point x="200" y="50" type="curve" smooth="yes"/>
      <point x="152" y="50"/>
      <point x="121" y="84"/>
      <point x="132" y="171" type="curve" smooth="yes"/>
      <point x="141" y="240"/>
      <point x="184" y="495"/>
      <point x="184" y="495" type="curve"/>
      <point x="100" y="470" type="line"/>
      <point x="100" y="470"/>
      <point x="64" y="265"/>
      <point x="53" y="176" type="curve" smooth="yes"/>
      <point x="36" y="43"/>
      <point x="95" y="-15"/>
      <point x="175" y="-15" type="curve" smooth="yes"/>
      <point x="237" y="-15"/>
      <point x="277" y="18"/>
      <point x="300" y="64" type="curve"/>
      <point x="304" y="-14"/>
      <point x="391" y="-22"/>
      <point x="430" y="0" type="curve"/>
      <point x="438" y="55" type="line"/>
      <point x="392" y="55"/>
      <point x="371" y="61"/>
      <point x="379" y="108" type="curve" smooth="yes"/>
    </contour>
  </outline>
</glyph>
<glyph name="z" format="1">
  <advance width="431"/>
  <unicode hex="007A"/>
  <outline>
    <contour>
      <point x="366" y="65" type="line"/>
      <point x="127" y="65" type="line"/>
      <point x="421" y="438" type="line"/>
      <point x="417" y="463"/>
      <point x="411" y="485"/>
      <point x="411" y="485" type="curve"/>
      <point x="94" y="485" type="line"/>
      <point x="83" y="420" type="line"/>
      <point x="314" y="420" type="line"/>
      <point x="20" y="47" type="line"/>
      <point x="24" y="21"/>
      <point x="30" y="0"/>
      <point x="30" y="0" type="curve"/>
      <point x="355" y="0" type="line"/>
    </contour>
  </outline>
</glyph>
<glyph name="braceright" format="1">
  <advance width="355"/>
  <unicode hex="007D"/>
  <outline>
    <contour>
      <point x="202" y="198" type="line"/>
      <point x="214" y="262"/>
      <point x="250" y="270"/>
      <point x="298" y="284" type="curve"/>
      <point x="305" y="332" type="line"/>
      <point x="265" y="341"/>
      <point x="234" y="370"/>
      <point x="245" y="434" type="curve" smooth="yes"/>
      <point x="280" y="637" type="line" smooth="yes"/>
      <point x="294" y="717"/>
      <point x="232" y="755"/>
      <point x="151" y="735" type="curve"/>
      <point x="143" y="693" type="line"/>
      <point x="186" y="698"/>
      <point x="221" y="680"/>
      <point x="214" y="635" type="curve" smooth="yes"/>
      <point x="182" y="445" type="line" smooth="yes"/>
      <point x="170" y="375"/>
      <point x="180" y="321"/>
      <point x="245" y="310" type="curve"/>
      <point x="176" y="301"/>
      <point x="148" y="264"/>
      <point x="138" y="209" type="curve" smooth="yes"/>
      <point x="94" y="-43" type="line" smooth="yes"/>
      <point x="86" y="-88"/>
      <point x="43" y="-89"/>
      <point x="9" y="-84" type="curve"/>
      <point x="0" y="-132" type="line"/>
      <point x="67" y="-152"/>
      <point x="144" y="-131"/>
      <point x="158" y="-51" type="curve" smooth="yes"/>
    </contour>
  </outline>
</glyph>
<glyph name="cent" format="1">
  <advance width="427"/>
  <unicode hex="00A2"/>
  <outline>
    <contour>
      <point x="179" y="39" type="line"/>
      <point x="159" y="-75" type="line"/>
      <point x="209" y="-59" type="line"/>
      <point x="224" y="30" type="line"/>
    </contour>
    <contour>
      <point x="300" y="441" type="line"/>
      <point x="317" y="550" type="line"/>
      <point x="267" y="534" type="line"/>
      <point x="253" y="440" type="line"/>
    </contour>
    <component base="c" xOffset="-3"/>
  </outline>
</glyph>
<glyph name="sterling" format="1">
  <advance width="539"/>
  <unicode hex="00A3"/>
  <outline>
    <contour>
      <point x="145" y="345" type="line"/>
      <point x="85" y="345" type="line"/>
      <point x="67" y="296" type="line"/>
      <point x="137" y="296" type="line"/>
      <point x="109" y="139" type="line" smooth="yes"/>
      <point x="97" y="73"/>
      <point x="32" y="42"/>
      <point x="32" y="42" type="curve"/>
      <point x="30" y="0" type="line"/>
      <point x="455" y="0" type="line"/>
      <point x="476" y="60" type="line"/>
      <point x="209" y="60" type="line" smooth="yes"/>
      <point x="166" y="60"/>
      <point x="109" y="45"/>
      <point x="109" y="45" type="curve"/>
      <point x="109" y="45"/>
      <point x="175" y="82"/>
      <point x="186" y="143" type="curve" smooth="yes"/>
      <point x="213" y="296" type="line"/>
      <point x="356" y="296" type="line"/>
      <point x="374" y="345" type="line"/>
      <point x="220" y="345" type="line"/>
      <point x="248" y="510" type="line" smooth="yes"/>
      <point x="260" y="581"/>
      <point x="311" y="615"/>
      <point x="359" y="615" type="curve" smooth="yes"/>
      <point x="409" y="615"/>
      <point x="456" y="578"/>
      <point x="453" y="510" type="curve"/>
      <point x="528" y="510" type="line"/>
      <point x="537" y="619"/>
      <point x="455" y="675"/>
      <point x="367" y="675" type="curve" smooth="yes"/>
      <point x="282" y="675"/>
      <point x="192" y="624"/>
      <point x="171" y="501" type="curve" smooth="yes"/>
    </contour>
  </outline>
</glyph>
<glyph name="brokenbar" format="1">
  <advance width="254"/>
  <unicode hex="00A6"/>
  <outline>
    <contour>
      <point x="89" y="190" type="line"/>
      <point x="10" y="-260" type="line"/>
      <point x="68" y="-260" type="line"/>
      <point x="147" y="190" type="line"/>
    </contour>
    <contour>
      <point x="165" y="290" type="line"/>
      <point x="244" y="740" type="line"/>
      <point x="186" y="740" type="line"/>
      <point x="107" y="290" type="line"/>
    </contour>
  </outline>
</glyph>
<glyph name="logicalnot" format="1">
  <advance width="533"/>
  <unicode hex="00AC"/>
  <outline>
    <contour>
      <point x="65" y="300" type="line"/>
      <point x="410" y="300" type="line"/>
      <point x="380" y="129" type="line"/>
      <point x="446" y="129" type="line"/>
      <point x="488" y="360" type="line"/>
      <point x="76" y="360" type="line"/>
    </contour>
  </outline>
</glyph>
<glyph name="registered" format="1">
  <advance width="864"/>
  <unicode hex="00AE"/>
  <outline>
    <contour>
      <point x="597" y="418" type="curve" smooth="yes"/>
      <point x="597" y="497"/>
      <point x="536" y="545"/>
      <point x="459" y="545" type="curve" smooth="yes"/>
      <point x="315" y="545" type="line"/>
      <point x="315" y="120" type="line"/>
      <point x="380" y="120" type="line"/>
      <point x="380" y="290" type="line"/>
      <point x="380" y="290"/>
      <point x="398" y="290"/>
      <point x="441" y="290" type="curve"/>
      <point x="543" y="120" type="line"/>
      <point x="618" y="120" type="line"/>
      <point x="506" y="298" type="line"/>
      <point x="558" y="316"/>
      <point x="597" y="360"/>
    </contour>
    <contour>
      <point x="380" y="494" type="line"/>
      <point x="380" y="494"/>
      <point x="410" y="495"/>
      <point x="451" y="494" type="curve" smooth="yes"/>
      <point x="503" y="492"/>
      <point x="532" y="460"/>
      <point x="532" y="418" type="curve" smooth="yes"/>
      <point x="532" y="371"/>
      <point x="503" y="342"/>
      <point x="450" y="341" type="curve" smooth="yes"/>
      <point x="416" y="341"/>
      <point x="380" y="341"/>
      <point x="380" y="341" type="curve"/>
    </contour>
    <contour>
      <point x="85" y="328" type="curve" smooth="yes"/>
      <point x="85" y="125"/>
      <point x="249" y="-39"/>
      <point x="452" y="-39" type="curve" smooth="yes"/>
      <point x="655" y="-39"/>
      <point x="819" y="125"/>
      <point x="819" y="328" type="curve" smooth="yes"/>
      <point x="819" y="531"/>
      <point x="655" y="695"/>
      <point x="452" y="695" type="curve" smooth="yes"/>
      <point x="249" y="695"/>
      <point x="85" y="531"/>
    </contour>
    <contour>
      <point x="143" y="328" type="curve" smooth="yes"/>
      <point x="143" y="502"/>
      <point x="278" y="645"/>
      <point x="452" y="645" type="curve" smooth="yes"/>
      <point x="626" y="645"/>
      <point x="760" y="502"/>
      <point x="760" y="328" type="curve" smooth="yes"/>
      <point x="760" y="154"/>
      <point x="626" y="11"/>
      <point x="452" y="11" type="curve" smooth="yes"/>
      <point x="278" y="11"/>
      <point x="143" y="154"/>
    </contour>
  </outline>
</glyph>
<glyph name="ordmasculine" format="1">
  <advance width="360"/>
  <unicode hex="00BA"/>
  <outline>
    <contour>
      <point x="55" y="178" type="line"/>
      <point x="289" y="178" type="line"/>
      <point x="297" y="225" type="line"/>
      <point x="63" y="225" type="line"/>
    </contour>
    <contour>
      <point x="333" y="413" type="curve" smooth="yes"/>
      <point x="342" y="451"/>
      <point x="349" y="489"/>
      <point x="353" y="518" type="curve" smooth="yes"/>
      <point x="364" y="596"/>
      <point x="315" y="635"/>
      <point x="249" y="635" type="curve" smooth="yes"/>
      <point x="188" y="635"/>
      <point x="133" y="602"/>
      <point x="115" y="537" type="curve" smooth="yes"/>
      <point x="106" y="504"/>
      <point x="101" y="472"/>
      <point x="94" y="425" type="curve" smooth="yes"/>
      <point x="83" y="347"/>
      <point x="132" y="305"/>
      <point x="199" y="305" type="curve" smooth="yes"/>
      <point x="260" y="305"/>
      <point x="315" y="339"/>
    </contour>
    <contour>
      <point x="294" y="527" type="curve" smooth="yes"/>
      <point x="289" y="487"/>
      <point x="280" y="438"/>
      <point x="271" y="403" type="curve" smooth="yes"/>
      <point x="262" y="366"/>
      <point x="234" y="350"/>
      <point x="207" y="350" type="curve" smooth="yes"/>
      <point x="175" y="350"/>
      <point x="148" y="374"/>
      <point x="153" y="416" type="curve" smooth="yes"/>
      <point x="157" y="449"/>
      <point x="164" y="490"/>
      <point x="172" y="527" type="curve" smooth="yes"/>
      <point x="181" y="570"/>
      <point x="214" y="591"/>
      <point x="244" y="591" type="curve" smooth="yes"/>
      <point x="275" y="591"/>
      <point x="300" y="569"/>
    </contour>
  </outline>
</glyph>
<glyph name="ae" format="1">
  <advance width="705"/>
  <unicode hex="00E6"/>
  <outline>
    <contour>
      <point x="127" y="166" type="curve" smooth="yes"/>
      <point x="128" y="177"/>
      <point x="130" y="196"/>
      <point x="132" y="206" type="curve" smooth="yes"/>
      <point x="146" y="280"/>
      <point x="195" y="315"/>
      <point x="250" y="315" type="curve" smooth="yes"/>
      <point x="299" y="315"/>
      <point x="317" y="296"/>
      <point x="317" y="296" type="curve"/>
      <point x="289" y="134" type="line"/>
      <point x="279" y="98"/>
      <point x="250" y="50"/>
      <point x="195" y="50" type="curve" smooth="yes"/>
      <point x="143" y="50"/>
      <point x="120" y="83"/>
    </contour>
    <contour>
      <point x="365" y="107" type="line"/>
      <point x="401" y="327" type="line"/>
      <point x="364" y="353"/>
      <point x="314" y="380"/>
      <point x="252" y="380" type="curve" smooth="yes"/>
      <point x="158" y="380"/>
      <point x="75" y="331"/>
      <point x="52" y="206" type="curve" smooth="yes"/>
      <point x="50" y="195"/>
      <point x="48" y="177"/>
      <point x="47" y="166" type="curve" smooth="yes"/>
      <point x="35" y="39"/>
      <point x="96" y="-15"/>
      <point x="168" y="-15" type="curve" smooth="yes"/>
      <point x="277" y="-15"/>
      <point x="310" y="101"/>
      <point x="310" y="101" type="curve"/>
    </contour>
    <component base="e" xOffset="252"/>
  </outline>
</glyph>
<glyph name="divide" format="1">
  <advance width="614"/>
  <unicode hex="00F7"/>
  <outline>
    <contour>
      <point x="60" y="185" type="line"/>
      <point x="523" y="185" type="line"/>
      <point x="534" y="247" type="line"/>
      <point x="71" y="247" type="line"/>
    </contour>
    <component base="period" xOffset="266" yOffset="325"/>
    <component base="period" xOffset="210"/>
  </outline>
</glyph>
<glyph name="dotlessi" format="1">
  <advance width="241"/>
  <unicode hex="0131"/>
  <outline>
    <contour>
      <point x="191" y="495" type="line"/>
      <point x="107" y="470" type="line"/>
      <point x="48" y="100" type="line"/>
      <point x="28" y="-19"/>
      <point x="124" y="-20"/>
      <point x="179" y="0" type="curve"/>
      <point x="187" y="55" type="line"/>
      <point x="137" y="55"/>
      <point x="122" y="62"/>
      <point x="129" y="107" type="curve" smooth="yes"/>
    </contour>
  </outline>
</glyph>
<glyph name="IJ" format="1">
  <advance width="574"/>
  <unicode hex="0132"/>
  <outline>
    <contour>
      <point x="484" y="700" type="line"/>
      <point x="484" y="700"/>
      <point x="377" y="21"/>
      <point x="364" y="-53" type="curve" smooth="yes"/>
      <point x="348" y="-144"/>
      <point x="312" y="-190"/>
      <point x="244" y="-190" type="curve" smooth="yes"/>
      <point x="158" y="-190"/>
      <point x="135" y="-118"/>
      <point x="139" y="-55" type="curve"/>
      <point x="54" y="-55" type="line"/>
      <point x="46" y="-160"/>
      <point x="112" y="-260"/>
      <point x="247" y="-260" type="curve" smooth="yes"/>
      <point x="361" y="-260"/>
      <point x="422" y="-191"/>
      <point x="447" y="-65" type="curve" smooth="yes"/>
      <point x="464" y="23"/>
      <point x="569" y="700"/>
      <point x="569" y="700" type="curve"/>
    </contour>
    <component base="I"/>
  </outline>
</glyph>
<glyph name="OE" format="1">
  <advance width="789"/>
  <unicode hex="0152"/>
  <outline>
    <contour>
      <point x="512.0" y="648.0" type="line"/>
      <point x="512.0" y="648.0"/>
      <point x="440.0" y="675.0"/>
      <point x="360.0" y="675.0" type="curve" smooth="yes"/>
      <point x="241.0" y="675.0"/>
      <point x="145.0" y="608.0"/>
      <point x="115.0" y="465.0" type="curve" smooth="yes"/>
      <point x="97.0" y="383.0"/>
      <point x="86.0" y="312.0"/>
      <point x="74.0" y="225.0" type="curve" smooth="yes"/>
      <point x="51.0" y="66.0"/>
      <point x="156.0" y="-15.0"/>
      <point x="263.0" y="-15.0" type="curve" smooth="yes"/>
      <point x="318.0" y="-15.0"/>
      <point x="373.0" y="-3.0"/>
      <point x="414.0" y="24.0" type="curve"/>
    </contour>
    <contour>
      <point x="381.0" y="75.0" type="line"/>
      <point x="353.0" y="51.0"/>
      <point x="313.0" y="50.0"/>
      <point x="274.0" y="50.0" type="curve" smooth="yes"/>
      <point x="195.0" y="50.0"/>
      <point x="140.0" y="108.0"/>
      <point x="153.0" y="220.0" type="curve" smooth="yes"/>
      <point x="164.0" y="307.0"/>
      <point x="179.0" y="391.0"/>
      <point x="194.0" y="460.0" type="curve" smooth="yes"/>
      <point x="217.0" y="568.0"/>
      <point x="275.0" y="610.0"/>
      <point x="354.0" y="610.0" type="curve" smooth="yes"/>
      <point x="441.0" y="610.0"/>
      <point x="488.0" y="579.0"/>
      <point x="488.0" y="579.0" type="curve"/>
    </contour>
    <contour>
      <point x="358.0" y="0.0" type="line"/>
      <point x="713" y="0" type="line"/>
      <point x="724" y="65" type="line"/>
      <point x="450.0" y="65.0" type="line"/>
      <point x="491.0" y="300.0" type="line"/>
      <point x="727.0" y="300.0" type="line"/>
      <point x="738.0" y="365.0" type="line"/>
      <point x="502.0" y="365.0" type="line"/>
      <point x="543.0" y="595.0" type="line"/>
      <point x="808.0" y="595.0" type="line"/>
      <point x="819.0" y="660.0" type="line"/>
      <point x="474.0" y="660.0" type="line"/>
    </contour>
  </outline>
</glyph>
<glyph name="circumflex" format="1">
  <advance width="472"/>
  <unicode hex="02C6"/>
  <outline>
    <contour>
      <point x="243" y="700" type="line"/>
      <point x="91" y="550" type="line"/>
      <point x="170" y="550" type="line"/>
      <point x="258" y="635" type="line"/>
      <point x="310" y="550" type="line"/>
      <point x="386" y="550" type="line"/>
      <point x="291" y="700" type="line"/>
    </contour>
  </outline>
</glyph>
<glyph name="breve" format="1">
  <advance width="446"/>
  <unicode hex="02D8"/>
  <outline>
    <contour>
      <point x="217" y="605" type="curve" smooth="yes"/>
      <point x="171" y="605"/>
      <point x="146" y="639"/>
      <point x="152" y="699" type="curve"/>
      <point x="91" y="699" type="line"/>
      <point x="69" y="603"/>
      <point x="132" y="545"/>
      <point x="212" y="545" type="curve" smooth="yes"/>
      <point x="290" y="545"/>
      <point x="361" y="598"/>
      <point x="373" y="699" type="curve"/>
      <point x="310" y="699" type="line"/>
      <point x="295" y="639"/>
      <point x="266" y="605"/>
    </contour>
  </outline>
</glyph>
<glyph name="ring" format="1">
  <advance width="378"/>
  <unicode hex="02DA"/>
  <outline>
    <contour>
      <point x="96" y="656" type="curve" smooth="yes"/>
      <point x="96" y="597"/>
      <point x="143" y="565"/>
      <point x="188" y="565" type="curve" smooth="yes"/>
      <point x="239" y="565"/>
      <point x="283" y="601"/>
      <point x="283" y="659" type="curve" smooth="yes"/>
      <point x="283" y="714"/>
      <point x="244" y="750"/>
      <point x="192" y="750" type="curve" smooth="yes"/>
      <point x="137" y="750"/>
      <point x="96" y="708"/>
    </contour>
    <contour>
      <point x="192" y="705" type="curve" smooth="yes"/>
      <point x="219" y="705"/>
      <point x="233" y="686"/>
      <point x="233" y="659" type="curve" smooth="yes"/>
      <point x="233" y="635"/>
      <point x="215" y="610"/>
      <point x="188" y="610" type="curve" smooth="yes"/>
      <point x="164" y="610"/>
      <point x="146" y="626"/>
      <point x="146" y="656" type="curve" smooth="yes"/>
      <point x="146" y="688"/>
      <point x="170" y="705"/>
    </contour>
  </outline>
</glyph>
<glyph name="tilde" format="1">
  <advance width="480"/>
  <unicode hex="02DC"/>
  <outline>
    <contour>
      <point x="295" y="593" type="curve" smooth="yes"/>
      <point x="355" y="593"/>
      <point x="380" y="634"/>
      <point x="380" y="700" type="curve"/>
      <point x="321" y="700" type="line"/>
      <point x="321" y="673"/>
      <point x="314" y="653"/>
      <point x="295" y="653" type="curve" smooth="yes"/>
      <point x="263" y="653"/>
      <point x="220" y="699"/>
      <point x="167" y="699" type="curve" smooth="yes"/>
      <point x="104" y="699"/>
      <point x="77" y="654"/>
      <point x="77" y="594" type="curve"/>
      <point x="137" y="594" type="line"/>
      <point x="137" y="618"/>
      <point x="148" y="639"/>
      <point x="167" y="639" type="curve" smooth="yes"/>
      <point x="198" y="639"/>
      <point x="251" y="593"/>
    </contour>
  </outline>
</glyph>
<glyph name="dagger" format="1">
  <advance width="428"/>
  <unicode hex="2020"/>
  <outline>
    <contour>
      <point x="132" y="-100" type="line"/>
      <point x="177" y="-100" type="line"/>
      <point x="273" y="425" type="line"/>
      <point x="303" y="419"/>
      <point x="364" y="414"/>
      <point x="391" y="414" type="curve" smooth="yes"/>
      <point x="454" y="414"/>
      <point x="465" y="481"/>
      <point x="393" y="481" type="curve" smooth="yes"/>
      <point x="362" y="481"/>
      <point x="312" y="475"/>
      <point x="281" y="469" type="curve"/>
      <point x="302" y="534"/>
      <point x="316" y="596"/>
      <point x="321" y="631" type="curve" smooth="yes"/>
      <point x="326" y="664"/>
      <point x="310" y="680"/>
      <point x="292" y="680" type="curve" smooth="yes"/>
      <point x="274" y="680"/>
      <point x="253" y="664"/>
      <point x="247" y="631" type="curve" smooth="yes"/>
      <point x="240" y="595"/>
      <point x="231" y="534"/>
      <point x="227" y="469" type="curve"/>
      <point x="196" y="475"/>
      <point x="139" y="481"/>
      <point x="109" y="481" type="curve" smooth="yes"/>
      <point x="46" y="481"/>
      <point x="42" y="414"/>
      <point x="112" y="414" type="curve" smooth="yes"/>
      <point x="139" y="414"/>
      <point x="188" y="419"/>
      <point x="222" y="426" type="curve"/>
    </contour>
  </outline>
</glyph>
<glyph name="perthousand" format="1">
  <advance width="1159"/>
  <unicode hex="2030"/>
  <outline>
    <contour>
      <point x="106" y="533" type="curve" smooth="yes"/>
      <point x="105" y="452"/>
      <point x="161" y="395"/>
      <point x="242" y="395" type="curve" smooth="yes"/>
      <point x="318" y="395"/>
      <point x="381" y="452"/>
      <point x="382" y="533" type="curve" smooth="yes"/>
      <point x="383" y="614"/>
      <point x="327" y="671"/>
      <point x="246" y="671" type="curve" smooth="yes"/>
      <point x="165" y="671"/>
      <point x="107" y="614"/>
    </contour>
    <contour>
      <point x="165" y="533" type="curve" smooth="yes"/>
      <point x="166" y="585"/>
      <point x="201" y="621"/>
      <point x="245" y="621" type="curve" smooth="yes"/>
      <point x="290" y="621"/>
      <point x="325" y="585"/>
      <point x="324" y="533" type="curve" smooth="yes"/>
      <point x="323" y="482"/>
      <point x="287" y="445"/>
      <point x="242" y="445" type="curve" smooth="yes"/>
      <point x="198" y="445"/>
      <point x="164" y="482"/>
    </contour>
    <contour>
      <point x="687" y="660" type="line"/>
      <point x="627" y="660" type="line"/>
      <point x="134" y="0" type="line"/>
      <point x="194" y="0" type="line"/>
    </contour>
    <contour>
      <point x="455" y="128" type="curve" smooth="yes"/>
      <point x="453" y="47"/>
      <point x="509" y="-10"/>
      <point x="590" y="-10" type="curve" smooth="yes"/>
      <point x="666" y="-10"/>
      <point x="729" y="47"/>
      <point x="731" y="128" type="curve" smooth="yes"/>
      <point x="732" y="209"/>
      <point x="676" y="266"/>
      <point x="595" y="266" type="curve" smooth="yes"/>
      <point x="514" y="266"/>
      <point x="456" y="209"/>
    </contour>
    <contour>
      <point x="514" y="128" type="curve" smooth="yes"/>
      <point x="515" y="180"/>
      <point x="550" y="216"/>
      <point x="594" y="216" type="curve" smooth="yes"/>
      <point x="639" y="216"/>
      <point x="674" y="180"/>
      <point x="673" y="128" type="curve" smooth="yes"/>
      <point x="672" y="77"/>
      <point x="636" y="40"/>
      <point x="591" y="40" type="curve" smooth="yes"/>
      <point x="547" y="40"/>
      <point x="513" y="77"/>
    </contour>
    <contour>
      <point x="792" y="128" type="curve" smooth="yes"/>
      <point x="790" y="47"/>
      <point x="846" y="-10"/>
      <point x="927" y="-10" type="curve" smooth="yes"/>
      <point x="1003" y="-10"/>
      <point x="1066" y="47"/>
      <point x="1068" y="128" type="curve" smooth="yes"/>
      <point x="1069" y="209"/>
      <point x="1013" y="266"/>
      <point x="932" y="266" type="curve" smooth="yes"/>
      <point x="851" y="266"/>
      <point x="793" y="209"/>
    </contour>
    <contour>
      <point x="851" y="128" type="curve" smooth="yes"/>
      <point x="852" y="180"/>
      <point x="887" y="216"/>
      <point x="931" y="216" type="curve" smooth="yes"/>
      <point x="976" y="216"/>
      <point x="1011" y="180"/>
      <point x="1010" y="128" type="curve" smooth="yes"/>
      <point x="1009" y="77"/>
      <point x="973" y="40"/>
      <point x="928" y="40" type="curve" smooth="yes"/>
      <point x="884" y="40"/>
      <point x="850" y="77"/>
    </contour>
  </outline>
</glyph>
<glyph name="Euro" format="1">
  <advance width="566"/>
  <unicode hex="20AC"/>
  <outline>
    <contour>
      <point x="391" y="259" type="line"/>
      <point x="406" y="314" type="line"/>
      <point x="35" y="314" type="line"/>
      <point x="20" y="259" type="line"/>
    </contour>
    <contour>
      <point x="55" y="464" type="line"/>
      <point x="40" y="409" type="line"/>
      <point x="426" y="409" type="line"/>
      <point x="441" y="464" type="line"/>
    </contour>
    <component base="C" xOffset="54"/>
  </outline>
</glyph>
<glyph name="approxequal" format="1">
  <advance width="471"/>
  <unicode hex="2248"/>
  <outline>
    <contour>
      <point x="336" y="311" type="curve" smooth="yes"/>
      <point x="398" y="311"/>
      <point x="430" y="341"/>
      <point x="418" y="403" type="curve"/>
      <point x="372" y="413" type="line"/>
      <point x="372" y="387"/>
      <point x="362" y="369"/>
      <point x="342" y="369" type="curve" smooth="yes"/>
      <point x="307" y="369"/>
      <point x="221" y="398"/>
      <point x="172" y="398" type="curve" smooth="yes"/>
      <point x="111" y="398"/>
      <point x="75" y="362"/>
      <point x="86" y="306" type="curve"/>
      <point x="134" y="296" type="line"/>
      <point x="133" y="326"/>
      <point x="148" y="337"/>
      <point x="171" y="337" type="curve" smooth="yes"/>
      <point x="205" y="337"/>
      <point x="290" y="311"/>
    </contour>
    <contour>
      <point x="302" y="125" type="curve" smooth="yes"/>
      <point x="364" y="125"/>
      <point x="396" y="155"/>
      <point x="384" y="217" type="curve"/>
      <point x="338" y="227" type="line"/>
      <point x="338" y="201"/>
      <point x="328" y="183"/>
      <point x="308" y="183" type="curve" smooth="yes"/>
      <point x="273" y="183"/>
      <point x="187" y="212"/>
      <point x="138" y="212" type="curve" smooth="yes"/>
      <point x="77" y="212"/>
      <point x="41" y="176"/>
      <point x="52" y="120" type="curve"/>
      <point x="100" y="110" type="line"/>
      <point x="99" y="140"/>
      <point x="114" y="151"/>
      <point x="137" y="151" type="curve" smooth="yes"/>
      <point x="171" y="151"/>
      <point x="256" y="125"/>
    </contour>
  </outline>
</glyph>
<glyph name="ff" format="1">
  <advance width="560"/>
  <unicode hex="FB00"/>
  <outline>
    <contour>
      <point x="216" y="556" type="curve" smooth="yes"/>
      <point x="227" y="621"/>
      <point x="252" y="675"/>
      <point x="316" y="675" type="curve" smooth="yes"/>
      <point x="353" y="675"/>
      <point x="377" y="659"/>
      <point x="377" y="659" type="curve"/>
      <point x="404" y="709" type="line"/>
      <point x="404" y="709"/>
      <point x="370" y="740"/>
      <point x="315" y="740" type="curve" smooth="yes"/>
      <point x="247" y="740"/>
      <point x="161" y="709"/>
      <point x="136" y="557" type="curve" smooth="yes"/>
      <point x="115" y="427"/>
      <point x="74" y="67"/>
      <point x="50" y="-71" type="curve" smooth="yes"/>
      <point x="36" y="-151"/>
      <point x="6" y="-195"/>
      <point x="-51" y="-195" type="curve" smooth="yes"/>
      <point x="-89" y="-195"/>
      <point x="-115" y="-179"/>
      <point x="-115" y="-179" type="curve"/>
      <point x="-140" y="-228" type="line"/>
      <point x="-140" y="-228"/>
      <point x="-97" y="-260"/>
      <point x="-41" y="-260" type="curve" smooth="yes"/>
      <point x="26" y="-260"/>
      <point x="104" y="-222"/>
      <point x="130" y="-72" type="curve" smooth="yes"/>
      <point x="155" y="74"/>
      <point x="199" y="453"/>
    </contour>
    <contour>
      <point x="347" y="430" type="line"/>
      <point x="357" y="485" type="line"/>
      <point x="59" y="485" type="line"/>
      <point x="50" y="430" type="line"/>
    </contour>
    <contour>
      <point x="496" y="566" type="curve" smooth="yes"/>
      <point x="507" y="630"/>
      <point x="533" y="685"/>
      <point x="602" y="685" type="curve" smooth="yes"/>
      <point x="639" y="685"/>
      <point x="663" y="669"/>
      <point x="663" y="669" type="curve"/>
      <point x="690" y="719" type="line"/>
      <point x="690" y="719"/>
      <point x="656" y="750"/>
      <point x="601" y="750" type="curve" smooth="yes"/>
      <point x="529" y="750"/>
      <point x="442" y="720"/>
      <point x="416" y="567" type="curve" smooth="yes"/>
      <point x="394" y="437"/>
      <point x="356" y="77"/>
      <point x="332" y="-61" type="curve" smooth="yes"/>
      <point x="318" y="-141"/>
      <point x="292" y="-185"/>
      <point x="236" y="-185" type="curve" smooth="yes"/>
      <point x="198" y="-185"/>
      <point x="172" y="-169"/>
      <point x="172" y="-169" type="curve"/>
      <point x="147" y="-218" type="line"/>
      <point x="147" y="-218"/>
      <point x="190" y="-250"/>
      <point x="246" y="-250" type="curve" smooth="yes"/>
      <point x="312" y="-250"/>
      <point x="386" y="-212"/>
      <point x="412" y="-62" type="curve" smooth="yes"/>
      <point x="437" y="84"/>
      <point x="478" y="463"/>
    </contour>
    <contour>
      <point x="602" y="430" type="line"/>
      <point x="612" y="485" type="line"/>
      <point x="340" y="485" type="line"/>
      <point x="331" y="430" type="line"/>
    </contour>
  </outline>
</glyph>
<glyph name="fl" format="1">
  <advance width="501"/>
  <unicode hex="FB02"/>
  <outline>
    <contour>
      <point x="218" y="564" type="curve" smooth="yes"/>
      <point x="231" y="631"/>
      <point x="262" y="685"/>
      <point x="331" y="685" type="curve" smooth="yes"/>
      <point x="388" y="685"/>
      <point x="408" y="667"/>
      <point x="408" y="667" type="curve"/>
      <point x="431" y="722" type="line"/>
      <point x="431" y="722"/>
      <point x="395" y="750"/>
      <point x="330" y="750" type="curve" smooth="yes"/>
      <point x="258" y="750"/>
      <point x="163" y="708"/>
      <point x="137" y="561" type="curve" smooth="yes"/>
      <point x="115" y="436"/>
      <point x="72" y="58"/>
      <point x="50" y="-71" type="curve" smooth="yes"/>
      <point x="36" y="-151"/>
      <point x="6" y="-195"/>
      <point x="-51" y="-195" type="curve" smooth="yes"/>
      <point x="-89" y="-195"/>
      <point x="-115" y="-179"/>
      <point x="-115" y="-179" type="curve"/>
      <point x="-140" y="-228" type="line"/>
      <point x="-140" y="-228"/>
      <point x="-97" y="-260"/>
      <point x="-41" y="-260" type="curve" smooth="yes"/>
      <point x="26" y="-260"/>
      <point x="105" y="-222"/>
      <point x="130" y="-72" type="curve" smooth="yes"/>
      <point x="153" y="65"/>
      <point x="199" y="466"/>
    </contour>
    <contour>
      <point x="296" y="430" type="line"/>
      <point x="306" y="485" type="line"/>
      <point x="59" y="485" type="line"/>
      <point x="50" y="430" type="line"/>
    </contour>
    <contour>
      <point x="501" y="750" type="line"/>
      <point x="417" y="725" type="line"/>
      <point x="318" y="100" type="line" smooth="yes"/>
      <point x="298" y="-19"/>
      <point x="394" y="-20"/>
      <point x="449" y="0" type="curve"/>
      <point x="457" y="55" type="line"/>
      <point x="407" y="55"/>
      <point x="391" y="62"/>
      <point x="399" y="107" type="curve" smooth="yes"/>
    </contour>
  </outline>
</glyph>
<glyph name="ffl" format="1">
  <advance width="781"/>
  <unicode hex="FB04"/>
  <outline>
    <contour>
      <point x="219" y="561" type="curve" smooth="yes"/>
      <point x="230" y="623"/>
      <point x="251" y="680"/>
      <point x="315" y="680" type="curve" smooth="yes"/>
      <point x="352" y="680"/>
      <point x="376" y="664"/>
      <point x="376" y="664" type="curve"/>
      <point x="403" y="714" type="line"/>
      <point x="403" y="714"/>
      <point x="369" y="745"/>
      <point x="314" y="745" type="curve" smooth="yes"/>
      <point x="247" y="745"/>
      <point x="165" y="713"/>
      <point x="139" y="562" type="curve" smooth="yes"/>
      <point x="117" y="437"/>
      <point x="64" y="57"/>
      <point x="40" y="-71" type="curve" smooth="yes"/>
      <point x="25" y="-151"/>
      <point x="-4" y="-195"/>
      <point x="-61" y="-195" type="curve" smooth="yes"/>
      <point x="-99" y="-195"/>
      <point x="-125" y="-179"/>
      <point x="-125" y="-179" type="curve"/>
      <point x="-150" y="-228" type="line"/>
      <point x="-150" y="-228"/>
      <point x="-107" y="-260"/>
      <point x="-51" y="-260" type="curve" smooth="yes"/>
      <point x="16" y="-260"/>
      <point x="92" y="-222"/>
      <point x="120" y="-72" type="curve" smooth="yes"/>
      <point x="145" y="64"/>
      <point x="201" y="463"/>
    </contour>
    <contour>
      <point x="348" y="430" type="line"/>
      <point x="358" y="485" type="line"/>
      <point x="59" y="485" type="line"/>
      <point x="50" y="430" type="line"/>
    </contour>
    <component base="l" xOffset="555"/>
    <component base="f-" xOffset="275"/>
  </outline>
</glyph>
<glyph name="Acutesmall" format="1">
  <advance width="456"/>
  <outline>
    <contour>
      <point x="154" y="580" type="line"/>
      <point x="183" y="552" type="line"/>
      <point x="308" y="657" type="line" smooth="yes"/>
      <point x="352" y="695"/>
      <point x="302" y="750"/>
      <point x="260" y="701" type="curve" smooth="yes"/>
    </contour>
  </outline>
</glyph>
<glyph name="Dieresissmall" format="1">
  <advance width="458"/>
  <outline>
    <contour>
      <point x="106" y="616" type="curve" smooth="yes"/>
      <point x="106" y="593"/>
      <point x="124" y="575"/>
      <point x="148" y="575" type="curve" smooth="yes"/>
      <point x="174" y="575"/>
      <point x="196" y="594"/>
      <point x="196" y="623" type="curve" smooth="yes"/>
      <point x="196" y="647"/>
      <point x="177" y="665"/>
      <point x="153" y="665" type="curve" smooth="yes"/>
      <point x="125" y="665"/>
      <point x="106" y="641"/>
    </contour>
    <contour>
      <point x="261" y="616" type="curve" smooth="yes"/>
      <point x="261" y="593"/>
      <point x="279" y="575"/>
      <point x="303" y="575" type="curve" smooth="yes"/>
      <point x="329" y="575"/>
      <point x="351" y="594"/>
      <point x="351" y="623" type="curve" smooth="yes"/>
      <point x="351" y="647"/>
      <point x="332" y="665"/>
      <point x="308" y="665" type="curve" smooth="yes"/>
      <point x="280" y="665"/>
      <point x="261" y="641"/>
    </contour>
  </outline>
</glyph>
<glyph name="Th" format="1">
  <advance width="924"/>
  <outline>
    <contour>
      <point x="158" y="0" type="line"/>
      <point x="243" y="0" type="line"/>
      <point x="343" y="630" type="line"/>
      <point x="561" y="630" type="line"/>
      <point x="563" y="700" type="line"/>
      <point x="82" y="700" type="line"/>
      <point x="70" y="630" type="line"/>
      <point x="258" y="630" type="line"/>
    </contour>
    <contour>
      <point x="646" y="725" type="line"/>
      <point x="562" y="700" type="line"/>
      <point x="451" y="0" type="line"/>
      <point x="531" y="0" type="line"/>
    </contour>
    <contour>
      <point x="579" y="304" type="line"/>
      <point x="594" y="393"/>
      <point x="640" y="435"/>
      <point x="705" y="435" type="curve" smooth="yes"/>
      <point x="757" y="435"/>
      <point x="785" y="400"/>
      <point x="772" y="317" type="curve" smooth="yes"/>
      <point x="740" y="114" type="line"/>
      <point x="719" y="-11"/>
      <point x="809" y="-24"/>
      <point x="869" y="0" type="curve"/>
      <point x="879" y="55" type="line"/>
      <point x="829" y="55"/>
      <point x="813" y="69"/>
      <point x="820" y="114" type="curve" smooth="yes"/>
      <point x="852" y="317" type="line" smooth="yes"/>
      <point x="871" y="438"/>
      <point x="811" y="500"/>
      <point x="730" y="500" type="curve" smooth="yes"/>
      <point x="639" y="500"/>
      <point x="601" y="435"/>
      <point x="598" y="431" type="curve"/>
    </contour>
    <component base="T"/>
  </outline>
</glyph>
<glyph name="Tildesmall" format="1">
  <advance width="480"/>
  <outline>
    <contour>
      <point x="298" y="603" type="curve" smooth="yes"/>
      <point x="350" y="603"/>
      <point x="377" y="636"/>
      <point x="367" y="688" type="curve"/>
      <point x="324" y="697" type="line"/>
      <point x="320" y="675"/>
      <point x="315" y="660"/>
      <point x="298" y="660" type="curve" smooth="yes"/>
      <point x="269" y="660"/>
      <point x="225" y="690"/>
      <point x="184" y="690" type="curve" smooth="yes"/>
      <point x="133" y="690"/>
      <point x="103" y="651"/>
      <point x="112" y="604" type="curve"/>
      <point x="156" y="595" type="line"/>
      <point x="160" y="620"/>
      <point x="168" y="630"/>
      <point x="187" y="630" type="curve" smooth="yes"/>
      <point x="216" y="630"/>
      <point x="260" y="603"/>
    </contour>
  </outline>
</glyph>
<glyph name="eightprop" format="1">
  <advance width="568"/>
  <outline>
    <contour>
      <point x="60" y="163" type="curve" smooth="yes"/>
      <point x="60" y="261"/>
      <point x="124" y="336"/>
      <point x="210" y="367" type="curve"/>
      <point x="161" y="388"/>
      <point x="127" y="440"/>
      <point x="127" y="501" type="curve" smooth="yes"/>
      <point x="127" y="630"/>
      <point x="240" y="715"/>
      <point x="362" y="715" type="curve" smooth="yes"/>
      <point x="472" y="715"/>
      <point x="543" y="652"/>
      <point x="543" y="551" type="curve" smooth="yes"/>
      <point x="543" y="465"/>
      <point x="487" y="395"/>
      <point x="413" y="365" type="curve"/>
      <point x="470" y="343"/>
      <point x="508" y="290"/>
      <point x="508" y="219" type="curve" smooth="yes"/>
      <point x="508" y="78"/>
      <point x="381" y="-15"/>
      <point x="255" y="-15" type="curve" smooth="yes"/>
      <point x="146" y="-15"/>
      <point x="60" y="49"/>
    </contour>
    <contour>
      <point x="322" y="393" type="curve" smooth="yes"/>
      <point x="403" y="393"/>
      <point x="459" y="455"/>
      <point x="459" y="542" type="curve" smooth="yes"/>
      <point x="459" y="604"/>
      <point x="423" y="645"/>
      <point x="355" y="645" type="curve" smooth="yes"/>
      <point x="265" y="645"/>
      <point x="213" y="578"/>
      <point x="213" y="502" type="curve" smooth="yes"/>
      <point x="213" y="434"/>
      <point x="257" y="393"/>
    </contour>
    <contour>
      <point x="268" y="55" type="curve" smooth="yes"/>
      <point x="359" y="55"/>
      <point x="423" y="126"/>
      <point x="423" y="215" type="curve" smooth="yes"/>
      <point x="423" y="276"/>
      <point x="387" y="328"/>
      <point x="306" y="328" type="curve" smooth="yes"/>
      <point x="212" y="328"/>
      <point x="146" y="262"/>
      <point x="146" y="171" type="curve" smooth="yes"/>
      <point x="146" y="103"/>
      <point x="187" y="55"/>
    </contour>
  </outline>
</glyph>
<glyph name="twoprop" format="1">
  <advance width="549"/>
  <outline>
    <contour>
      <point x="47" y="0" type="line"/>
      <point x="466" y="0" type="line"/>
      <point x="477" y="70" type="line"/>
      <point x="154" y="70" type="line"/>
      <point x="188" y="95"/>
      <point x="287" y="175"/>
      <point x="351" y="241" type="curve" smooth="yes"/>
      <point x="434" y="326"/>
      <point x="523" y="427"/>
      <point x="523" y="543" type="curve" smooth="yes"/>
      <point x="523" y="654"/>
      <point x="444" y="715"/>
      <point x="337" y="715" type="curve" smooth="yes"/>
      <point x="216" y="715"/>
      <point x="134" y="626"/>
      <point x="121" y="508" type="curve"/>
      <point x="197" y="513" type="line"/>
      <point x="211" y="593"/>
      <point x="259" y="645"/>
      <point x="335" y="645" type="curve" smooth="yes"/>
      <point x="402" y="645"/>
      <point x="435" y="601"/>
      <point x="435" y="536" type="curve" smooth="yes"/>
      <point x="435" y="438"/>
      <point x="365" y="360"/>
      <point x="305" y="294" type="curve" smooth="yes"/>
      <point x="234" y="216"/>
      <point x="86" y="88"/>
      <point x="36" y="48" type="curve"/>
    </contour>
  </outline>
</glyph>
<glyph name="zeropropslash" format="1">
  <advance width="572"/>
  <outline>
    <contour>
      <point x="159" y="84" type="line"/>
      <point x="474" y="520" type="line"/>
      <point x="474" y="520"/>
      <point x="458" y="577"/>
      <point x="457" y="578" type="curve"/>
      <point x="143" y="135" type="line"/>
    </contour>
    <component base="zeroprop" xOffset="-1"/>
  </outline>
</glyph>
